<svg width="16" height="16" viewBox="0 0 16 16" fill="none" xmlns="http://www.w3.org/2000/svg">
<path d="M13.3706 13.3717L12.2675 13.6673L11.6163 11.2367C12.1314 10.9787 12.5418 10.551 12.7782 10.0257C13.0147 9.50038 13.0628 8.90958 12.9144 8.35293C12.1269 5.41543 10.4906 2.83918 10.4213 2.73105C10.3648 2.64282 10.2821 2.57454 10.1847 2.53585C10.0874 2.49716 9.98037 2.49002 9.87875 2.51543L8.5125 2.8573C8.5125 2.34168 8.50125 2.01793 8.49938 1.9773C8.49439 1.86989 8.45491 1.76695 8.3868 1.68375C8.31868 1.60055 8.22556 1.54152 8.12125 1.51543L6.12125 1.01543C6.01963 0.990017 5.9126 0.997159 5.81526 1.03585C5.71793 1.07454 5.63519 1.14282 5.57875 1.23105C5.50938 1.33918 3.87313 3.91418 3.08562 6.85605C2.93721 7.4127 2.98529 8.0035 3.22177 8.52882C3.45824 9.05414 3.86864 9.48185 4.38375 9.73981L3.7325 12.1673L2.62937 11.8717C2.50124 11.8374 2.36473 11.8554 2.24986 11.9217C2.13499 11.988 2.05119 12.0973 2.01688 12.2254C1.98256 12.3536 2.00056 12.4901 2.0669 12.6049C2.13324 12.7198 2.24249 12.8036 2.37063 12.8379L5.37063 13.6417C5.41286 13.6528 5.45633 13.6584 5.5 13.6586C5.62141 13.6587 5.73872 13.6147 5.83004 13.5347C5.92136 13.4547 5.98046 13.3442 5.9963 13.2238C6.01214 13.1034 5.98364 12.9814 5.91613 12.8805C5.84861 12.7796 5.74669 12.7067 5.62937 12.6754L4.69812 12.4254L5.34937 9.99481C5.4 9.99793 5.45 9.99981 5.5 9.99981C5.99604 9.99841 6.48052 9.84992 6.89215 9.57313C7.30379 9.29633 7.62408 8.90367 7.8125 8.4448C7.88625 8.84293 7.975 9.24606 8.08187 9.64606C8.22495 10.178 8.5394 10.648 8.97654 10.9832C9.41367 11.3184 9.94912 11.5002 10.5 11.5004C10.55 11.5004 10.6 11.5004 10.6506 11.4954L11.3019 13.9261L10.3706 14.1761C10.2539 14.2078 10.1526 14.2808 10.0855 14.3815C10.0185 14.4822 9.99022 14.6039 10.006 14.7238C10.0218 14.8438 10.0806 14.954 10.1714 15.0339C10.2623 15.1138 10.379 15.1581 10.5 15.1586C10.5437 15.1584 10.5871 15.1528 10.6294 15.1417L13.6294 14.3379C13.7575 14.3036 13.8668 14.2198 13.9331 14.1049C13.9994 13.9901 14.0174 13.8536 13.9831 13.7254C13.9488 13.5973 13.865 13.488 13.7501 13.4217C13.6353 13.3554 13.4988 13.3374 13.3706 13.3717ZM9.76375 3.5748C9.9375 3.86855 10.2156 4.35855 10.5262 4.97855L8.5 5.48605C8.47375 4.86105 8.47625 4.34543 8.48438 3.99918C8.48438 3.96418 8.4875 3.92918 8.48938 3.89418L9.76375 3.5748ZM6.23625 2.0748L7.50938 2.39293C7.51312 2.66043 7.50938 3.0598 7.49625 3.5473C7.4925 3.62293 7.48625 3.74668 7.48187 3.9123C7.48187 3.9748 7.47563 4.0373 7.47188 4.0998L5.41813 3.5898C5.75 2.9173 6.0525 2.38543 6.23625 2.0748ZM11.5525 2.72418C11.5231 2.66542 11.5055 2.60144 11.5008 2.53589C11.4962 2.47034 11.5044 2.40452 11.5252 2.34217C11.546 2.27983 11.5789 2.2222 11.6219 2.17256C11.665 2.12293 11.7175 2.08228 11.7762 2.05293L12.7762 1.55293C12.835 1.52355 12.899 1.50603 12.9645 1.50137C13.0301 1.49671 13.0959 1.50501 13.1582 1.52578C13.2205 1.54656 13.2782 1.57941 13.3278 1.62246C13.3774 1.66551 13.4181 1.71791 13.4475 1.77668C13.4769 1.83545 13.4944 1.89942 13.4991 1.96496C13.5037 2.0305 13.4954 2.09631 13.4746 2.15864C13.4539 2.22098 13.421 2.27861 13.378 2.32824C13.3349 2.37788 13.2825 2.41855 13.2238 2.44793L12.2238 2.94793C12.165 2.97736 12.101 2.99491 12.0355 2.99959C11.9699 3.00427 11.9041 2.99598 11.8417 2.9752C11.7794 2.95442 11.7218 2.92155 11.6721 2.87848C11.6225 2.83541 11.5819 2.78298 11.5525 2.72418ZM14.5 4.50043C14.5 4.63304 14.4473 4.76022 14.3536 4.85398C14.2598 4.94775 14.1326 5.00043 14 5.00043H13C12.8674 5.00043 12.7402 4.94775 12.6464 4.85398C12.5527 4.76022 12.5 4.63304 12.5 4.50043C12.5 4.36782 12.5527 4.24064 12.6464 4.14688C12.7402 4.05311 12.8674 4.00043 13 4.00043H14C14.1326 4.00043 14.2598 4.05311 14.3536 4.14688C14.4473 4.24064 14.5 4.36782 14.5 4.50043ZM2.0525 1.27668C2.08185 1.21788 2.1225 1.16545 2.17213 1.12238C2.22177 1.07931 2.2794 1.04644 2.34174 1.02566C2.40409 1.00488 2.46991 0.99659 2.53546 1.00127C2.60101 1.00595 2.66499 1.0235 2.72375 1.05293L3.72375 1.55293C3.78252 1.58231 3.83492 1.62298 3.87797 1.67262C3.92102 1.72225 3.95387 1.77988 3.97465 1.84221C3.99542 1.90455 4.00372 1.97036 3.99906 2.0359C3.9944 2.10143 3.97688 2.16541 3.9475 2.22418C3.91812 2.28295 3.87745 2.33535 3.82781 2.3784C3.77818 2.42145 3.72055 2.4543 3.65822 2.47508C3.53233 2.51704 3.39493 2.50727 3.27625 2.44793L2.27625 1.94793C2.21745 1.91858 2.16502 1.87793 2.12195 1.82829C2.07888 1.77866 2.04601 1.72103 2.02523 1.65869C2.00445 1.59634 1.99616 1.53052 2.00084 1.46497C2.00552 1.39942 2.02307 1.33544 2.0525 1.27668ZM2.5 4.50043H1.5C1.36739 4.50043 1.24021 4.44775 1.14645 4.35398C1.05268 4.26022 1 4.13304 1 4.00043C1 3.86782 1.05268 3.74064 1.14645 3.64688C1.24021 3.55311 1.36739 3.50043 1.5 3.50043H2.5C2.63261 3.50043 2.75979 3.55311 2.85355 3.64688C2.94732 3.74064 3 3.86782 3 4.00043C3 4.13304 2.94732 4.26022 2.85355 4.35398C2.75979 4.44775 2.63261 4.50043 2.5 4.50043Z" fill="#727075" style="fill:#727075;fill:color(display-p3 0.4471 0.4392 0.4588);fill-opacity:1;"/>
</svg>

