<svg width="12" height="12" viewBox="0 0 12 12" fill="none" xmlns="http://www.w3.org/2000/svg">
<path d="M3.45522 2.44914e-07H4.8C5.13137 2.44914e-07 5.4 0.26863 5.4 0.600001C5.4 0.931372 5.13137 1.2 4.8 1.2H3.48C2.96605 1.2 2.61668 1.20047 2.34662 1.22253C2.08357 1.24402 1.94905 1.28298 1.85521 1.33079C1.62942 1.44584 1.44584 1.62942 1.33079 1.85521C1.28298 1.94905 1.24402 2.08357 1.22253 2.34662C1.20047 2.61668 1.2 2.96605 1.2 3.48V8.52C1.2 9.03395 1.20047 9.38332 1.22253 9.65338C1.24402 9.91643 1.28298 10.051 1.33079 10.1448C1.44584 10.3706 1.62942 10.5542 1.85521 10.6692C1.94905 10.717 2.08357 10.756 2.34662 10.7775C2.61668 10.7995 2.96605 10.8 3.48 10.8H8.52C9.03395 10.8 9.38332 10.7995 9.65338 10.7775C9.91643 10.756 10.0509 10.717 10.1448 10.6692C10.3706 10.5542 10.5542 10.3706 10.6692 10.1448C10.717 10.051 10.756 9.91643 10.7775 9.65338C10.7995 9.38332 10.8 9.03395 10.8 8.52V7.2C10.8 6.86863 11.0686 6.6 11.4 6.6C11.7314 6.6 12 6.86863 12 7.2V8.5448C12 9.02777 12 9.42638 11.9735 9.7511C11.9459 10.0884 11.8868 10.3984 11.7384 10.6896C11.5083 11.1412 11.1412 11.5083 10.6896 11.7384C10.3984 11.8868 10.0884 11.9459 9.7511 11.9735C9.42638 12 9.02777 12 8.5448 12H3.45521C2.97223 12 2.57362 12 2.24891 11.9735C1.91165 11.9459 1.60162 11.8868 1.31042 11.7384C0.858835 11.5083 0.491681 11.1412 0.261585 10.6896C0.113211 10.3984 0.0540721 10.0884 0.0265169 9.7511C-1.32993e-05 9.42638 -7.1747e-06 9.02777 2.47165e-07 8.54479V3.45522C-7.1747e-06 2.97224 -1.32993e-05 2.57362 0.0265169 2.24891C0.0540721 1.91165 0.113211 1.60163 0.261585 1.31042C0.491681 0.858835 0.858835 0.491681 1.31042 0.261585C1.60163 0.113211 1.91165 0.0540721 2.24891 0.026517C2.57362 -1.32188e-05 2.97224 -7.13176e-06 3.45522 2.44914e-07Z" fill="#727075" style="fill:#727075;fill:color(display-p3 0.4471 0.4392 0.4588);fill-opacity:1;"/>
<path d="M9.95147 3L9.17574 3.77574C8.94142 4.01005 8.94142 4.38995 9.17574 4.62426C9.41005 4.85858 9.78995 4.85858 10.0243 4.62426L11.8243 2.82426C12.0586 2.58995 12.0586 2.21005 11.8243 1.97574L10.0243 0.175736C9.78995 -0.0585784 9.41005 -0.0585784 9.17574 0.175736C8.94142 0.410051 8.94142 0.78995 9.17574 1.02426L9.95147 1.8L9.45522 1.8C8.97224 1.79999 8.57362 1.79999 8.24891 1.82652C7.91165 1.85407 7.60162 1.91321 7.31042 2.06159C6.85883 2.29168 6.49168 2.65883 6.26159 3.11042C6.11321 3.40163 6.05407 3.71165 6.02652 4.04891C5.99999 4.37362 5.99999 4.77223 6 5.2552L6 6C6 6.33137 6.26863 6.6 6.6 6.6C6.93137 6.6 7.2 6.33137 7.2 6V5.28C7.2 4.76605 7.20047 4.41668 7.22253 4.14662C7.24402 3.88357 7.28298 3.74905 7.33079 3.65521C7.44584 3.42942 7.62942 3.24584 7.85521 3.13079C7.94905 3.08298 8.08357 3.04402 8.34662 3.02253C8.61668 3.00047 8.96605 3 9.48 3H9.95147Z" fill="#727075" style="fill:#727075;fill:color(display-p3 0.4471 0.4392 0.4588);fill-opacity:1;"/>
</svg>

