<svg width="12" height="12" viewBox="0 0 12 12" fill="none" xmlns="http://www.w3.org/2000/svg">
<path d="M4.10479 0.75333C4.08898 0.694618 4.0853 0.63347 4.09397 0.573384C4.10264 0.513298 4.12348 0.455453 4.15531 0.403159C4.18713 0.350865 4.22932 0.305148 4.27944 0.268624C4.32957 0.2321 4.38666 0.205484 4.44744 0.190301C5.46551 -0.0634336 6.53356 -0.0634336 7.55163 0.190301C7.6644 0.218201 7.76273 0.284938 7.82816 0.377971C7.89359 0.471004 7.92161 0.583927 7.90694 0.695515C7.89228 0.807104 7.83595 0.909676 7.74853 0.983953C7.66112 1.05823 7.54864 1.0991 7.43224 1.09888C7.39195 1.09867 7.35185 1.09364 7.31285 1.08388C6.4514 0.869173 5.54767 0.869173 4.68622 1.08388C4.56377 1.11441 4.43378 1.09675 4.32478 1.03478C4.21578 0.972812 4.13666 0.871594 4.10479 0.75333ZM1.5695 1.7969C0.833232 2.52141 0.299208 3.41458 0.0174003 4.39283C-0.0164018 4.51079 -0.000328361 4.63689 0.0620847 4.7434C0.124498 4.84991 0.228138 4.9281 0.350206 4.96076C0.472273 4.99343 0.602769 4.97789 0.712985 4.91758C0.823202 4.85727 0.90411 4.75711 0.937913 4.63915C1.17614 3.81109 1.62803 3.05504 2.25122 2.44184C2.33274 2.35323 2.37584 2.23771 2.37159 2.11922C2.36734 2.00074 2.31606 1.88838 2.22839 1.80544C2.14072 1.7225 2.02339 1.67535 1.90071 1.67376C1.77804 1.67217 1.65944 1.71626 1.5695 1.7969ZM0.937913 7.35854C0.921136 7.30013 0.892619 7.24549 0.85399 7.19773C0.815361 7.14997 0.767376 7.11003 0.712774 7.0802C0.658173 7.05036 0.598025 7.03121 0.535764 7.02383C0.473503 7.01646 0.410349 7.02101 0.349907 7.03722C0.289465 7.05343 0.23292 7.08099 0.183499 7.11832C0.134078 7.15565 0.0927497 7.20202 0.0618736 7.25478C0.0309975 7.30755 0.0111784 7.36567 0.0035476 7.42584C-0.00408316 7.486 0.000623984 7.54703 0.0174003 7.60544C0.299378 8.58362 0.833378 9.47676 1.5695 10.2014C1.65832 10.2887 1.77938 10.3383 1.90605 10.3393C2.03273 10.3403 2.15463 10.2927 2.24496 10.2069C2.33528 10.121 2.38662 10.004 2.38768 9.88162C2.38875 9.75921 2.33945 9.64141 2.25063 9.55412C1.6282 8.94113 1.17659 8.18579 0.937913 7.35854ZM7.31285 10.9161C6.45143 11.1311 5.54764 11.1311 4.68622 10.9161C4.62516 10.8999 4.56136 10.8956 4.49855 10.9035C4.43575 10.9113 4.37518 10.9311 4.32038 10.9618C4.26558 10.9925 4.21764 11.0334 4.17935 11.0821C4.14107 11.1309 4.11319 11.1865 4.09736 11.2458C4.08153 11.305 4.07805 11.3667 4.08712 11.4273C4.0962 11.4879 4.11765 11.5461 4.15023 11.5986C4.18281 11.651 4.22586 11.6967 4.27689 11.733C4.32791 11.7692 4.38589 11.7953 4.44744 11.8097C5.46551 12.0634 6.53356 12.0634 7.55163 11.8097C7.67255 11.7776 7.77556 11.7009 7.83841 11.596C7.90126 11.4911 7.91892 11.3666 7.88757 11.2493C7.85622 11.132 7.77837 11.0313 7.67084 10.9689C7.56331 10.9066 7.43473 10.8876 7.31285 10.9161ZM11.6498 7.03837C11.5893 7.02216 11.5261 7.01763 11.4638 7.02503C11.4015 7.03244 11.3413 7.05164 11.2867 7.08154C11.2321 7.11143 11.1841 7.15144 11.1455 7.19926C11.1069 7.24709 11.0785 7.3018 11.0618 7.36027C10.8237 8.18821 10.3717 8.94411 9.74845 9.55701C9.70451 9.60026 9.66981 9.65146 9.64635 9.70767C9.62288 9.76389 9.61111 9.82401 9.61169 9.88463C9.61227 9.94524 9.6252 10.0051 9.64974 10.0609C9.67428 10.1167 9.70995 10.1673 9.75471 10.2097C9.79948 10.2522 9.85246 10.2857 9.91063 10.3084C9.9688 10.3311 10.031 10.3425 10.0937 10.3419C10.1565 10.3413 10.2185 10.3288 10.2762 10.3051C10.3339 10.2814 10.3862 10.2469 10.4302 10.2037C11.1665 9.47925 11.7006 8.58605 11.9823 7.60775C11.9992 7.54926 12.0041 7.48812 11.9966 7.42782C11.989 7.36752 11.9692 7.30925 11.9383 7.25635C11.9075 7.20345 11.8661 7.15697 11.8165 7.11956C11.767 7.08216 11.7103 7.05457 11.6498 7.03837ZM11.0612 4.64204C11.0779 4.70045 11.1065 4.75509 11.1451 4.80285C11.1837 4.8506 11.2317 4.89054 11.2863 4.92038C11.3409 4.95022 11.401 4.96937 11.4633 4.97674C11.5256 4.98412 11.5887 4.97957 11.6492 4.96336C11.7096 4.94714 11.7662 4.91959 11.8156 4.88226C11.865 4.84493 11.9063 4.79856 11.9372 4.74579C11.9681 4.69303 11.9879 4.6349 11.9955 4.57474C12.0032 4.51457 11.9985 4.45354 11.9817 4.39514C11.7 3.41684 11.1659 2.52364 10.4296 1.7992C10.3856 1.75598 10.3332 1.72156 10.2755 1.69789C10.2177 1.67423 10.1557 1.66179 10.093 1.66128C10.0303 1.66077 9.96809 1.6722 9.90994 1.69493C9.85179 1.71765 9.79884 1.75122 9.75412 1.79372C9.70939 1.83622 9.67377 1.88682 9.64928 1.94262C9.62479 1.99842 9.61192 2.05834 9.61139 2.11895C9.61086 2.17957 9.62269 2.23968 9.64621 2.29588C9.66973 2.35207 9.70447 2.40324 9.74845 2.44646C10.3711 3.05906 10.8227 3.81428 11.0612 4.64146V4.64204Z" fill="white" fill-opacity="0.5" style="fill:white;fill-opacity:0.5;"/>
</svg>

