<svg width="188" height="90" viewBox="0 0 188 90" fill="none" xmlns="http://www.w3.org/2000/svg">
<path d="M146.192 0.960938C150.403 0.961031 153.422 2.24755 155.387 4.54883C157.351 6.84907 158.257 10.1569 158.257 14.1885V76.0449C158.257 80.2529 157.145 83.5024 155.079 85.7002C153.012 87.8982 149.994 89.039 146.192 89.0391H144.558C140.58 89.0391 137.533 87.8693 135.48 85.6562C133.429 83.4437 132.376 80.1942 132.376 76.0449V14.1885C132.376 10.0402 133.311 6.73212 135.305 4.46094C137.299 2.1888 140.347 0.960938 144.558 0.960938H146.192ZM20.0908 1.54395L20.0928 1.58105L25.9307 88.4141L25.9336 88.4561H14.8789L14.8779 88.418L14.1797 70.832H10.6348L9.93652 88.418L9.93457 88.4561H0.0478516L0.0507812 88.4141L5.53809 1.58105L5.54004 1.54395H20.0908ZM40.4951 1.54395V88.4561H28.9756V1.54395H40.4951ZM90.1592 1.54395C92.676 1.54395 94.8771 2.21748 96.4482 3.77344C98.0193 5.32952 98.9551 7.76275 98.9551 11.2705V78.2627C98.9551 81.7119 98.078 84.2611 96.5664 85.9482C95.0544 87.6359 92.9115 88.4561 90.3926 88.4561H73.8916V1.54395H90.1592ZM179.034 1.54395C181.376 1.54396 183.401 2.18795 184.841 3.6123C186.281 5.03694 187.129 7.23705 187.129 10.3369V42.1992C187.129 45.1826 186.28 47.3815 184.855 48.835C183.431 50.2883 181.436 50.9911 179.151 50.9912H173.819V88.4561H162.416V1.54395H179.034ZM85.1787 78.8066H86.1895C86.6448 78.8066 86.9826 78.6372 87.208 78.2852C87.4353 77.9299 87.5517 77.3846 87.5518 76.6289V13.0215C87.5518 12.3245 87.4351 11.8084 87.208 11.4678C86.9827 11.1299 86.645 10.96 86.1895 10.96H85.1787V78.8066ZM145.375 11.0762C144.98 11.0762 144.671 11.245 144.459 11.5693C144.246 11.8959 144.13 12.3834 144.13 13.0215V76.9785C144.13 77.6168 144.246 78.0743 144.458 78.3711C144.668 78.6655 144.977 78.8066 145.375 78.8066C145.773 78.8066 146.081 78.6653 146.291 78.3711C146.503 78.0743 146.619 77.6168 146.619 76.9785V13.0215C146.619 12.3834 146.503 11.8959 146.29 11.5693C146.078 11.2451 145.77 11.0763 145.375 11.0762ZM11.1055 60.833H13.8252L12.4648 25.2607L11.1055 60.833ZM173.819 41.6924H174.598C175.056 41.6924 175.393 41.55 175.617 41.2559C175.843 40.9595 175.959 40.5026 175.959 39.8643V12.2041C175.959 11.6775 175.929 11.2515 175.746 10.9561C175.567 10.666 175.233 10.4932 174.598 10.4932H173.819V41.6924ZM56.1699 38.6582H56.9482C57.3491 38.6581 57.658 38.5436 57.8672 38.3066C58.0771 38.0687 58.1923 37.7005 58.1924 37.1807V11.8545C58.1924 11.5923 58.1851 11.3682 58.1582 11.1797C58.1313 10.9911 58.0857 10.84 58.0098 10.7227C57.8603 10.4918 57.5856 10.376 57.0645 10.376H56.1699V38.6582ZM114.654 38.6582H115.432C115.833 38.6582 116.142 38.5437 116.352 38.3066C116.561 38.0687 116.677 37.7005 116.677 37.1807V11.8545C116.677 11.5923 116.67 11.3682 116.643 11.1797C116.616 10.9911 116.569 10.84 116.493 10.7227C116.344 10.492 116.07 10.376 115.549 10.376H114.654V38.6582ZM70.1797 88.4561H59.0332L59.0215 88.4443C58.4263 87.8493 58.1924 86.9018 58.1924 85.6152V50.0186C58.1924 49.8139 58.1926 49.6193 58.1729 49.4414C58.1531 49.2636 58.1135 49.1056 58.0371 48.9736C57.8867 48.714 57.5835 48.5411 56.9482 48.541H56.1699V88.4561H44.6494V1.54395H62.4346C64.486 1.54395 66.2496 2.18914 67.499 3.52637C68.7481 4.8633 69.4795 6.8875 69.4795 9.63672V34.7295C69.4795 37.012 68.9231 38.6251 68.1445 39.7705C67.388 40.8834 66.4223 41.5502 65.5605 41.9639C67.4239 42.8014 69.7128 44.6768 69.7129 48.2676V85.2656C69.7129 86.5467 69.8295 87.358 70.1768 88.168L70.1797 88.1748V88.4561ZM128.664 88.4561H117.518L117.506 88.4443C116.911 87.8493 116.677 86.9018 116.677 85.6152V50.0186C116.677 49.8139 116.677 49.6193 116.657 49.4414C116.637 49.2637 116.598 49.1056 116.521 48.9736C116.371 48.7139 116.067 48.541 115.432 48.541H114.654V88.4561H103.134V1.54395H120.919C122.97 1.54395 124.733 2.18922 125.982 3.52637C127.232 4.8633 127.964 6.88729 127.964 9.63672V34.7295C127.964 37.012 127.407 38.6251 126.629 39.7705C125.872 40.8834 124.907 41.5502 124.045 41.9639C125.908 42.8014 128.197 44.6769 128.197 48.2676V85.2656C128.197 86.5467 128.314 87.358 128.661 88.168L128.664 88.1748V88.4561Z" fill="url(#paint0_linear_917_4189)" style=""/>
<path d="M146.192 0.960938C150.403 0.961031 153.422 2.24755 155.387 4.54883C157.351 6.84907 158.257 10.1569 158.257 14.1885V76.0449C158.257 80.2529 157.145 83.5024 155.079 85.7002C153.012 87.8982 149.994 89.039 146.192 89.0391H144.558C140.58 89.0391 137.533 87.8693 135.48 85.6562C133.429 83.4437 132.376 80.1942 132.376 76.0449V14.1885C132.376 10.0402 133.311 6.73212 135.305 4.46094C137.299 2.1888 140.347 0.960938 144.558 0.960938H146.192ZM20.0908 1.54395L20.0928 1.58105L25.9307 88.4141L25.9336 88.4561H14.8789L14.8779 88.418L14.1797 70.832H10.6348L9.93652 88.418L9.93457 88.4561H0.0478516L0.0507812 88.4141L5.53809 1.58105L5.54004 1.54395H20.0908ZM40.4951 1.54395V88.4561H28.9756V1.54395H40.4951ZM90.1592 1.54395C92.676 1.54395 94.8771 2.21748 96.4482 3.77344C98.0193 5.32952 98.9551 7.76275 98.9551 11.2705V78.2627C98.9551 81.7119 98.078 84.2611 96.5664 85.9482C95.0544 87.6359 92.9115 88.4561 90.3926 88.4561H73.8916V1.54395H90.1592ZM179.034 1.54395C181.376 1.54396 183.401 2.18795 184.841 3.6123C186.281 5.03694 187.129 7.23705 187.129 10.3369V42.1992C187.129 45.1826 186.28 47.3815 184.855 48.835C183.431 50.2883 181.436 50.9911 179.151 50.9912H173.819V88.4561H162.416V1.54395H179.034ZM85.1787 78.8066H86.1895C86.6448 78.8066 86.9826 78.6372 87.208 78.2852C87.4353 77.9299 87.5517 77.3846 87.5518 76.6289V13.0215C87.5518 12.3245 87.4351 11.8084 87.208 11.4678C86.9827 11.1299 86.645 10.96 86.1895 10.96H85.1787V78.8066ZM145.375 11.0762C144.98 11.0762 144.671 11.245 144.459 11.5693C144.246 11.8959 144.13 12.3834 144.13 13.0215V76.9785C144.13 77.6168 144.246 78.0743 144.458 78.3711C144.668 78.6655 144.977 78.8066 145.375 78.8066C145.773 78.8066 146.081 78.6653 146.291 78.3711C146.503 78.0743 146.619 77.6168 146.619 76.9785V13.0215C146.619 12.3834 146.503 11.8959 146.29 11.5693C146.078 11.2451 145.77 11.0763 145.375 11.0762ZM11.1055 60.833H13.8252L12.4648 25.2607L11.1055 60.833ZM173.819 41.6924H174.598C175.056 41.6924 175.393 41.55 175.617 41.2559C175.843 40.9595 175.959 40.5026 175.959 39.8643V12.2041C175.959 11.6775 175.929 11.2515 175.746 10.9561C175.567 10.666 175.233 10.4932 174.598 10.4932H173.819V41.6924ZM56.1699 38.6582H56.9482C57.3491 38.6581 57.658 38.5436 57.8672 38.3066C58.0771 38.0687 58.1923 37.7005 58.1924 37.1807V11.8545C58.1924 11.5923 58.1851 11.3682 58.1582 11.1797C58.1313 10.9911 58.0857 10.84 58.0098 10.7227C57.8603 10.4918 57.5856 10.376 57.0645 10.376H56.1699V38.6582ZM114.654 38.6582H115.432C115.833 38.6582 116.142 38.5437 116.352 38.3066C116.561 38.0687 116.677 37.7005 116.677 37.1807V11.8545C116.677 11.5923 116.67 11.3682 116.643 11.1797C116.616 10.9911 116.569 10.84 116.493 10.7227C116.344 10.492 116.07 10.376 115.549 10.376H114.654V38.6582ZM70.1797 88.4561H59.0332L59.0215 88.4443C58.4263 87.8493 58.1924 86.9018 58.1924 85.6152V50.0186C58.1924 49.8139 58.1926 49.6193 58.1729 49.4414C58.1531 49.2636 58.1135 49.1056 58.0371 48.9736C57.8867 48.714 57.5835 48.5411 56.9482 48.541H56.1699V88.4561H44.6494V1.54395H62.4346C64.486 1.54395 66.2496 2.18914 67.499 3.52637C68.7481 4.8633 69.4795 6.8875 69.4795 9.63672V34.7295C69.4795 37.012 68.9231 38.6251 68.1445 39.7705C67.388 40.8834 66.4223 41.5502 65.5605 41.9639C67.4239 42.8014 69.7128 44.6768 69.7129 48.2676V85.2656C69.7129 86.5467 69.8295 87.358 70.1768 88.168L70.1797 88.1748V88.4561ZM128.664 88.4561H117.518L117.506 88.4443C116.911 87.8493 116.677 86.9018 116.677 85.6152V50.0186C116.677 49.8139 116.677 49.6193 116.657 49.4414C116.637 49.2637 116.598 49.1056 116.521 48.9736C116.371 48.7139 116.067 48.541 115.432 48.541H114.654V88.4561H103.134V1.54395H120.919C122.97 1.54395 124.733 2.18922 125.982 3.52637C127.232 4.8633 127.964 6.88729 127.964 9.63672V34.7295C127.964 37.012 127.407 38.6251 126.629 39.7705C125.872 40.8834 124.907 41.5502 124.045 41.9639C125.908 42.8014 128.197 44.6769 128.197 48.2676V85.2656C128.197 86.5467 128.314 87.358 128.661 88.168L128.664 88.1748V88.4561Z" fill="url(#paint1_linear_917_4189)" style=""/>
<path d="M146.192 0.960938C150.403 0.961031 153.422 2.24755 155.387 4.54883C157.351 6.84907 158.257 10.1569 158.257 14.1885V76.0449C158.257 80.2529 157.145 83.5024 155.079 85.7002C153.012 87.8982 149.994 89.039 146.192 89.0391H144.558C140.58 89.0391 137.533 87.8693 135.48 85.6562C133.429 83.4437 132.376 80.1942 132.376 76.0449V14.1885C132.376 10.0402 133.311 6.73212 135.305 4.46094C137.299 2.1888 140.347 0.960938 144.558 0.960938H146.192ZM20.0908 1.54395L20.0928 1.58105L25.9307 88.4141L25.9336 88.4561H14.8789L14.8779 88.418L14.1797 70.832H10.6348L9.93652 88.418L9.93457 88.4561H0.0478516L0.0507812 88.4141L5.53809 1.58105L5.54004 1.54395H20.0908ZM40.4951 1.54395V88.4561H28.9756V1.54395H40.4951ZM90.1592 1.54395C92.676 1.54395 94.8771 2.21748 96.4482 3.77344C98.0193 5.32952 98.9551 7.76275 98.9551 11.2705V78.2627C98.9551 81.7119 98.078 84.2611 96.5664 85.9482C95.0544 87.6359 92.9115 88.4561 90.3926 88.4561H73.8916V1.54395H90.1592ZM179.034 1.54395C181.376 1.54396 183.401 2.18795 184.841 3.6123C186.281 5.03694 187.129 7.23705 187.129 10.3369V42.1992C187.129 45.1826 186.28 47.3815 184.855 48.835C183.431 50.2883 181.436 50.9911 179.151 50.9912H173.819V88.4561H162.416V1.54395H179.034ZM85.1787 78.8066H86.1895C86.6448 78.8066 86.9826 78.6372 87.208 78.2852C87.4353 77.9299 87.5517 77.3846 87.5518 76.6289V13.0215C87.5518 12.3245 87.4351 11.8084 87.208 11.4678C86.9827 11.1299 86.645 10.96 86.1895 10.96H85.1787V78.8066ZM145.375 11.0762C144.98 11.0762 144.671 11.245 144.459 11.5693C144.246 11.8959 144.13 12.3834 144.13 13.0215V76.9785C144.13 77.6168 144.246 78.0743 144.458 78.3711C144.668 78.6655 144.977 78.8066 145.375 78.8066C145.773 78.8066 146.081 78.6653 146.291 78.3711C146.503 78.0743 146.619 77.6168 146.619 76.9785V13.0215C146.619 12.3834 146.503 11.8959 146.29 11.5693C146.078 11.2451 145.77 11.0763 145.375 11.0762ZM11.1055 60.833H13.8252L12.4648 25.2607L11.1055 60.833ZM173.819 41.6924H174.598C175.056 41.6924 175.393 41.55 175.617 41.2559C175.843 40.9595 175.959 40.5026 175.959 39.8643V12.2041C175.959 11.6775 175.929 11.2515 175.746 10.9561C175.567 10.666 175.233 10.4932 174.598 10.4932H173.819V41.6924ZM56.1699 38.6582H56.9482C57.3491 38.6581 57.658 38.5436 57.8672 38.3066C58.0771 38.0687 58.1923 37.7005 58.1924 37.1807V11.8545C58.1924 11.5923 58.1851 11.3682 58.1582 11.1797C58.1313 10.9911 58.0857 10.84 58.0098 10.7227C57.8603 10.4918 57.5856 10.376 57.0645 10.376H56.1699V38.6582ZM114.654 38.6582H115.432C115.833 38.6582 116.142 38.5437 116.352 38.3066C116.561 38.0687 116.677 37.7005 116.677 37.1807V11.8545C116.677 11.5923 116.67 11.3682 116.643 11.1797C116.616 10.9911 116.569 10.84 116.493 10.7227C116.344 10.492 116.07 10.376 115.549 10.376H114.654V38.6582ZM70.1797 88.4561H59.0332L59.0215 88.4443C58.4263 87.8493 58.1924 86.9018 58.1924 85.6152V50.0186C58.1924 49.8139 58.1926 49.6193 58.1729 49.4414C58.1531 49.2636 58.1135 49.1056 58.0371 48.9736C57.8867 48.714 57.5835 48.5411 56.9482 48.541H56.1699V88.4561H44.6494V1.54395H62.4346C64.486 1.54395 66.2496 2.18914 67.499 3.52637C68.7481 4.8633 69.4795 6.8875 69.4795 9.63672V34.7295C69.4795 37.012 68.9231 38.6251 68.1445 39.7705C67.388 40.8834 66.4223 41.5502 65.5605 41.9639C67.4239 42.8014 69.7128 44.6768 69.7129 48.2676V85.2656C69.7129 86.5467 69.8295 87.358 70.1768 88.168L70.1797 88.1748V88.4561ZM128.664 88.4561H117.518L117.506 88.4443C116.911 87.8493 116.677 86.9018 116.677 85.6152V50.0186C116.677 49.8139 116.677 49.6193 116.657 49.4414C116.637 49.2637 116.598 49.1056 116.521 48.9736C116.371 48.7139 116.067 48.541 115.432 48.541H114.654V88.4561H103.134V1.54395H120.919C122.97 1.54395 124.733 2.18922 125.982 3.52637C127.232 4.8633 127.964 6.88729 127.964 9.63672V34.7295C127.964 37.012 127.407 38.6251 126.629 39.7705C125.872 40.8834 124.907 41.5502 124.045 41.9639C125.908 42.8014 128.197 44.6769 128.197 48.2676V85.2656C128.197 86.5467 128.314 87.358 128.661 88.168L128.664 88.1748V88.4561Z" stroke="white" style="stroke:white;stroke-opacity:1;" stroke-width="0.0786378"/>
<defs>
<linearGradient id="paint0_linear_917_4189" x1="187.088" y1="0.999843" x2="176.778" y2="106.3" gradientUnits="userSpaceOnUse">
<stop stop-color="#FFF100" style="stop-color:#FFF100;stop-color:color(display-p3 1.0000 0.9451 0.0000);stop-opacity:1;"/>
<stop offset="0.33" stop-color="#FF0000" style="stop-color:#FF0000;stop-color:color(display-p3 1.0000 0.0000 0.0000);stop-opacity:1;"/>
<stop offset="0.66" stop-color="#0C00FF" style="stop-color:#0C00FF;stop-color:color(display-p3 0.0471 0.0000 1.0000);stop-opacity:1;"/>
<stop offset="1" stop-color="#00FF00" style="stop-color:#00FF00;stop-color:color(display-p3 0.0000 1.0000 0.0000);stop-opacity:1;"/>
</linearGradient>
<linearGradient id="paint1_linear_917_4189" x1="93.0541" y1="89" x2="93.0541" y2="1" gradientUnits="userSpaceOnUse">
<stop stop-color="#EAEAEA" style="stop-color:#EAEAEA;stop-color:color(display-p3 0.9186 0.9186 0.9186);stop-opacity:1;"/>
<stop offset="0.5" stop-color="white" stop-opacity="0.8" style="stop-color:white;stop-opacity:0.8;"/>
<stop offset="1" stop-color="#EAEAEA" style="stop-color:#EAEAEA;stop-color:color(display-p3 0.9176 0.9176 0.9176);stop-opacity:1;"/>
</linearGradient>
</defs>
</svg>

