<svg width="164" height="88" viewBox="0 0 164 88" fill="none" xmlns="http://www.w3.org/2000/svg">
<path d="M13.9987 39.4963L12.6263 17.186L11.2539 39.4963H13.9987ZM15.1881 58.6532L14.5477 48.0893H10.6134L9.97293 58.6532H0L5.67267 0H20.3118L26.442 58.6532H15.1881Z" fill="black" style="fill:black;fill-opacity:1;"/>
<path d="M13.9987 39.4963L12.6263 17.186L11.2539 39.4963H13.9987ZM15.1881 58.6532L14.5477 48.0893H10.6134L9.97293 58.6532H0L5.67267 0H20.3118L26.442 58.6532H15.1881Z" fill="url(#paint0_linear_677_2642)" style=""/>
<path d="M13.9987 39.4963L12.6263 17.186L11.2539 39.4963H13.9987ZM15.1881 58.6532L14.5477 48.0893H10.6134L9.97293 58.6532H0L5.67267 0H20.3118L26.442 58.6532H15.1881Z" fill="white" style="fill:white;fill-opacity:1;"/>
<path d="M13.9987 39.4963L12.6263 17.186L11.2539 39.4963H13.9987ZM15.1881 58.6532L14.5477 48.0893H10.6134L9.97293 58.6532H0L5.67267 0H20.3118L26.442 58.6532H15.1881Z" fill="url(#paint1_linear_677_2642)" style=""/>
<path d="M13.9987 39.4963L12.6263 17.186L11.2539 39.4963H13.9987ZM15.1881 58.6532L14.5477 48.0893H10.6134L9.97293 58.6532H0L5.67267 0H20.3118L26.442 58.6532H15.1881Z" fill="url(#paint2_linear_677_2642)" style=""/>
<path d="M27.2754 0H38.8038L38.8953 49.3507H46.2148L46.1233 58.6532H27.2754V0Z" fill="black" style="fill:black;fill-opacity:1;"/>
<path d="M27.2754 0H38.8038L38.8953 49.3507H46.2148L46.1233 58.6532H27.2754V0Z" fill="url(#paint3_linear_677_2642)" style=""/>
<path d="M27.2754 0H38.8038L38.8953 49.3507H46.2148L46.1233 58.6532H27.2754V0Z" fill="white" style="fill:white;fill-opacity:1;"/>
<path d="M27.2754 0H38.8038L38.8953 49.3507H46.2148L46.1233 58.6532H27.2754V0Z" fill="url(#paint4_linear_677_2642)" style=""/>
<path d="M27.2754 0H38.8038L38.8953 49.3507H46.2148L46.1233 58.6532H27.2754V0Z" fill="url(#paint5_linear_677_2642)" style=""/>
<path d="M47.7367 0H59.265L59.3565 49.3507H66.6761L66.5846 58.6532H47.7367V0Z" fill="black" style="fill:black;fill-opacity:1;"/>
<path d="M47.7367 0H59.265L59.3565 49.3507H66.6761L66.5846 58.6532H47.7367V0Z" fill="url(#paint6_linear_677_2642)" style=""/>
<path d="M47.7367 0H59.265L59.3565 49.3507H66.6761L66.5846 58.6532H47.7367V0Z" fill="white" style="fill:white;fill-opacity:1;"/>
<path d="M47.7367 0H59.265L59.3565 49.3507H66.6761L66.5846 58.6532H47.7367V0Z" fill="url(#paint7_linear_677_2642)" style=""/>
<path d="M47.7367 0H59.265L59.3565 49.3507H66.6761L66.5846 58.6532H47.7367V0Z" fill="url(#paint8_linear_677_2642)" style=""/>
<path d="M80.3781 58.6532V8.98718H75.1629V0H97.0301V8.98718H91.8149V58.6532H80.3781Z" fill="black" style="fill:black;fill-opacity:1;"/>
<path d="M80.3781 58.6532V8.98718H75.1629V0H97.0301V8.98718H91.8149V58.6532H80.3781Z" fill="url(#paint9_linear_677_2642)" style=""/>
<path d="M80.3781 58.6532V8.98718H75.1629V0H97.0301V8.98718H91.8149V58.6532H80.3781Z" fill="white" style="fill:white;fill-opacity:1;"/>
<path d="M80.3781 58.6532V8.98718H75.1629V0H97.0301V8.98718H91.8149V58.6532H80.3781Z" fill="url(#paint10_linear_677_2642)" style=""/>
<path d="M80.3781 58.6532V8.98718H75.1629V0H97.0301V8.98718H91.8149V58.6532H80.3781Z" fill="url(#paint11_linear_677_2642)" style=""/>
<path d="M110.286 0V58.6532H98.6663V0H110.286Z" fill="black" style="fill:black;fill-opacity:1;"/>
<path d="M110.286 0V58.6532H98.6663V0H110.286Z" fill="url(#paint12_linear_677_2642)" style=""/>
<path d="M110.286 0V58.6532H98.6663V0H110.286Z" fill="white" style="fill:white;fill-opacity:1;"/>
<path d="M110.286 0V58.6532H98.6663V0H110.286Z" fill="url(#paint13_linear_677_2642)" style=""/>
<path d="M110.286 0V58.6532H98.6663V0H110.286Z" fill="url(#paint14_linear_677_2642)" style=""/>
<path d="M112.158 58.6532V0H125.425L127.438 28.4594L129.451 0H142.351V58.6532H132.653V25.8579L129.268 58.6532H125.15L121.674 25.8579V58.6532H112.158Z" fill="black" style="fill:black;fill-opacity:1;"/>
<path d="M112.158 58.6532V0H125.425L127.438 28.4594L129.451 0H142.351V58.6532H132.653V25.8579L129.268 58.6532H125.15L121.674 25.8579V58.6532H112.158Z" fill="url(#paint15_linear_677_2642)" style=""/>
<path d="M112.158 58.6532V0H125.425L127.438 28.4594L129.451 0H142.351V58.6532H132.653V25.8579L129.268 58.6532H125.15L121.674 25.8579V58.6532H112.158Z" fill="white" style="fill:white;fill-opacity:1;"/>
<path d="M112.158 58.6532V0H125.425L127.438 28.4594L129.451 0H142.351V58.6532H132.653V25.8579L129.268 58.6532H125.15L121.674 25.8579V58.6532H112.158Z" fill="url(#paint16_linear_677_2642)" style=""/>
<path d="M112.158 58.6532V0H125.425L127.438 28.4594L129.451 0H142.351V58.6532H132.653V25.8579L129.268 58.6532H125.15L121.674 25.8579V58.6532H112.158Z" fill="url(#paint17_linear_677_2642)" style=""/>
<path d="M144.146 0H163.726V8.98718H155.491V23.2563H162.445V32.5588H155.491V49.5083H164V58.6532H144.146V0Z" fill="black" style="fill:black;fill-opacity:1;"/>
<path d="M144.146 0H163.726V8.98718H155.491V23.2563H162.445V32.5588H155.491V49.5083H164V58.6532H144.146V0Z" fill="url(#paint18_linear_677_2642)" style=""/>
<path d="M144.146 0H163.726V8.98718H155.491V23.2563H162.445V32.5588H155.491V49.5083H164V58.6532H144.146V0Z" fill="white" style="fill:white;fill-opacity:1;"/>
<path d="M144.146 0H163.726V8.98718H155.491V23.2563H162.445V32.5588H155.491V49.5083H164V58.6532H144.146V0Z" fill="url(#paint19_linear_677_2642)" style=""/>
<path d="M144.146 0H163.726V8.98718H155.491V23.2563H162.445V32.5588H155.491V49.5083H164V58.6532H144.146V0Z" fill="url(#paint20_linear_677_2642)" style=""/>
<path d="M0 87.8741V62.0469H28.4308C36.2762 62.0469 38.2202 64.9629 38.2202 67.8441V68.0524C38.2202 70.9684 35.686 72.6347 33.0825 73.1901C36.415 73.7455 39.7476 75.4465 39.7476 80.0287V80.3065C39.7476 84.368 36.9357 87.8741 28.4308 87.8741H0ZM22.4253 68.7467H13.1913V71.2461H22.4253C24.0568 71.2461 24.7511 70.9337 24.7511 69.9964V69.927C24.7511 68.955 24.0568 68.7467 22.4253 68.7467ZM22.946 77.7376H13.1913V80.9313H22.946C25.2024 80.9313 25.7231 80.2717 25.7231 79.2998V79.2303C25.7231 78.2583 25.2024 77.7376 22.946 77.7376Z" fill="black" style="fill:black;fill-opacity:1;"/>
<path d="M0 87.8741V62.0469H28.4308C36.2762 62.0469 38.2202 64.9629 38.2202 67.8441V68.0524C38.2202 70.9684 35.686 72.6347 33.0825 73.1901C36.415 73.7455 39.7476 75.4465 39.7476 80.0287V80.3065C39.7476 84.368 36.9357 87.8741 28.4308 87.8741H0ZM22.4253 68.7467H13.1913V71.2461H22.4253C24.0568 71.2461 24.7511 70.9337 24.7511 69.9964V69.927C24.7511 68.955 24.0568 68.7467 22.4253 68.7467ZM22.946 77.7376H13.1913V80.9313H22.946C25.2024 80.9313 25.7231 80.2717 25.7231 79.2998V79.2303C25.7231 78.2583 25.2024 77.7376 22.946 77.7376Z" fill="url(#paint21_linear_677_2642)" style=""/>
<path d="M0 87.8741V62.0469H28.4308C36.2762 62.0469 38.2202 64.9629 38.2202 67.8441V68.0524C38.2202 70.9684 35.686 72.6347 33.0825 73.1901C36.415 73.7455 39.7476 75.4465 39.7476 80.0287V80.3065C39.7476 84.368 36.9357 87.8741 28.4308 87.8741H0ZM22.4253 68.7467H13.1913V71.2461H22.4253C24.0568 71.2461 24.7511 70.9337 24.7511 69.9964V69.927C24.7511 68.955 24.0568 68.7467 22.4253 68.7467ZM22.946 77.7376H13.1913V80.9313H22.946C25.2024 80.9313 25.7231 80.2717 25.7231 79.2998V79.2303C25.7231 78.2583 25.2024 77.7376 22.946 77.7376Z" fill="white" style="fill:white;fill-opacity:1;"/>
<path d="M0 87.8741V62.0469H28.4308C36.2762 62.0469 38.2202 64.9629 38.2202 67.8441V68.0524C38.2202 70.9684 35.686 72.6347 33.0825 73.1901C36.415 73.7455 39.7476 75.4465 39.7476 80.0287V80.3065C39.7476 84.368 36.9357 87.8741 28.4308 87.8741H0ZM22.4253 68.7467H13.1913V71.2461H22.4253C24.0568 71.2461 24.7511 70.9337 24.7511 69.9964V69.927C24.7511 68.955 24.0568 68.7467 22.4253 68.7467ZM22.946 77.7376H13.1913V80.9313H22.946C25.2024 80.9313 25.7231 80.2717 25.7231 79.2998V79.2303C25.7231 78.2583 25.2024 77.7376 22.946 77.7376Z" fill="url(#paint22_linear_677_2642)" style=""/>
<path d="M0 87.8741V62.0469H28.4308C36.2762 62.0469 38.2202 64.9629 38.2202 67.8441V68.0524C38.2202 70.9684 35.686 72.6347 33.0825 73.1901C36.415 73.7455 39.7476 75.4465 39.7476 80.0287V80.3065C39.7476 84.368 36.9357 87.8741 28.4308 87.8741H0ZM22.4253 68.7467H13.1913V71.2461H22.4253C24.0568 71.2461 24.7511 70.9337 24.7511 69.9964V69.927C24.7511 68.955 24.0568 68.7467 22.4253 68.7467ZM22.946 77.7376H13.1913V80.9313H22.946C25.2024 80.9313 25.7231 80.2717 25.7231 79.2998V79.2303C25.7231 78.2583 25.2024 77.7376 22.946 77.7376Z" fill="url(#paint23_linear_677_2642)" style=""/>
<path d="M54.1431 72.3569H63.7589C65.564 72.3569 66.1541 71.6627 66.1541 70.7254C66.1541 69.7534 65.5293 69.0938 63.7589 69.0938H54.1431V72.3569ZM54.1431 79.6122V87.8741H40.9517V62.0469H69.4867C75.0409 62.0469 79.6579 63.4354 79.6579 68.5731V68.8855C79.6579 72.7388 76.0476 74.3704 73.6871 74.8564C77.818 75.6548 79.7967 77.9806 79.7967 81.3479V85.2706C79.7967 86.555 79.9703 87.1451 80.248 87.6658V87.8741H66.6748C66.5013 87.7006 66.5013 87.4576 66.5013 87.0757V83.9514C66.5013 81.3132 65.2169 79.6122 61.5024 79.6122H54.1431Z" fill="black" style="fill:black;fill-opacity:1;"/>
<path d="M54.1431 72.3569H63.7589C65.564 72.3569 66.1541 71.6627 66.1541 70.7254C66.1541 69.7534 65.5293 69.0938 63.7589 69.0938H54.1431V72.3569ZM54.1431 79.6122V87.8741H40.9517V62.0469H69.4867C75.0409 62.0469 79.6579 63.4354 79.6579 68.5731V68.8855C79.6579 72.7388 76.0476 74.3704 73.6871 74.8564C77.818 75.6548 79.7967 77.9806 79.7967 81.3479V85.2706C79.7967 86.555 79.9703 87.1451 80.248 87.6658V87.8741H66.6748C66.5013 87.7006 66.5013 87.4576 66.5013 87.0757V83.9514C66.5013 81.3132 65.2169 79.6122 61.5024 79.6122H54.1431Z" fill="url(#paint24_linear_677_2642)" style=""/>
<path d="M54.1431 72.3569H63.7589C65.564 72.3569 66.1541 71.6627 66.1541 70.7254C66.1541 69.7534 65.5293 69.0938 63.7589 69.0938H54.1431V72.3569ZM54.1431 79.6122V87.8741H40.9517V62.0469H69.4867C75.0409 62.0469 79.6579 63.4354 79.6579 68.5731V68.8855C79.6579 72.7388 76.0476 74.3704 73.6871 74.8564C77.818 75.6548 79.7967 77.9806 79.7967 81.3479V85.2706C79.7967 86.555 79.9703 87.1451 80.248 87.6658V87.8741H66.6748C66.5013 87.7006 66.5013 87.4576 66.5013 87.0757V83.9514C66.5013 81.3132 65.2169 79.6122 61.5024 79.6122H54.1431Z" fill="white" style="fill:white;fill-opacity:1;"/>
<path d="M54.1431 72.3569H63.7589C65.564 72.3569 66.1541 71.6627 66.1541 70.7254C66.1541 69.7534 65.5293 69.0938 63.7589 69.0938H54.1431V72.3569ZM54.1431 79.6122V87.8741H40.9517V62.0469H69.4867C75.0409 62.0469 79.6579 63.4354 79.6579 68.5731V68.8855C79.6579 72.7388 76.0476 74.3704 73.6871 74.8564C77.818 75.6548 79.7967 77.9806 79.7967 81.3479V85.2706C79.7967 86.555 79.9703 87.1451 80.248 87.6658V87.8741H66.6748C66.5013 87.7006 66.5013 87.4576 66.5013 87.0757V83.9514C66.5013 81.3132 65.2169 79.6122 61.5024 79.6122H54.1431Z" fill="url(#paint25_linear_677_2642)" style=""/>
<path d="M54.1431 72.3569H63.7589C65.564 72.3569 66.1541 71.6627 66.1541 70.7254C66.1541 69.7534 65.5293 69.0938 63.7589 69.0938H54.1431V72.3569ZM54.1431 79.6122V87.8741H40.9517V62.0469H69.4867C75.0409 62.0469 79.6579 63.4354 79.6579 68.5731V68.8855C79.6579 72.7388 76.0476 74.3704 73.6871 74.8564C77.818 75.6548 79.7967 77.9806 79.7967 81.3479V85.2706C79.7967 86.555 79.9703 87.1451 80.248 87.6658V87.8741H66.6748C66.5013 87.7006 66.5013 87.4576 66.5013 87.0757V83.9514C66.5013 81.3132 65.2169 79.6122 61.5024 79.6122H54.1431Z" fill="url(#paint26_linear_677_2642)" style=""/>
<path d="M81.5644 62.0469H96.4568L108.607 73.7802V62.0469H121.798V87.8741H108.364L94.7558 74.9605V87.8741H81.5644V62.0469Z" fill="black" style="fill:black;fill-opacity:1;"/>
<path d="M81.5644 62.0469H96.4568L108.607 73.7802V62.0469H121.798V87.8741H108.364L94.7558 74.9605V87.8741H81.5644V62.0469Z" fill="url(#paint27_linear_677_2642)" style=""/>
<path d="M81.5644 62.0469H96.4568L108.607 73.7802V62.0469H121.798V87.8741H108.364L94.7558 74.9605V87.8741H81.5644V62.0469Z" fill="white" style="fill:white;fill-opacity:1;"/>
<path d="M81.5644 62.0469H96.4568L108.607 73.7802V62.0469H121.798V87.8741H108.364L94.7558 74.9605V87.8741H81.5644V62.0469Z" fill="url(#paint28_linear_677_2642)" style=""/>
<path d="M81.5644 62.0469H96.4568L108.607 73.7802V62.0469H121.798V87.8741H108.364L94.7558 74.9605V87.8741H81.5644V62.0469Z" fill="url(#paint29_linear_677_2642)" style=""/>
<path d="M123.94 87.8741V62.0469H144.63C159.383 62.0469 164 67.6011 164 74.2662V75.3424C164 81.7644 160.494 87.8741 144.63 87.8741H123.94ZM137.131 70.0658V79.8899H142.408C149.871 79.8899 150.357 76.4879 150.357 74.9605V74.7522C150.357 73.2248 149.767 70.0658 142.408 70.0658H137.131Z" fill="black" style="fill:black;fill-opacity:1;"/>
<path d="M123.94 87.8741V62.0469H144.63C159.383 62.0469 164 67.6011 164 74.2662V75.3424C164 81.7644 160.494 87.8741 144.63 87.8741H123.94ZM137.131 70.0658V79.8899H142.408C149.871 79.8899 150.357 76.4879 150.357 74.9605V74.7522C150.357 73.2248 149.767 70.0658 142.408 70.0658H137.131Z" fill="url(#paint30_linear_677_2642)" style=""/>
<path d="M123.94 87.8741V62.0469H144.63C159.383 62.0469 164 67.6011 164 74.2662V75.3424C164 81.7644 160.494 87.8741 144.63 87.8741H123.94ZM137.131 70.0658V79.8899H142.408C149.871 79.8899 150.357 76.4879 150.357 74.9605V74.7522C150.357 73.2248 149.767 70.0658 142.408 70.0658H137.131Z" fill="white" style="fill:white;fill-opacity:1;"/>
<path d="M123.94 87.8741V62.0469H144.63C159.383 62.0469 164 67.6011 164 74.2662V75.3424C164 81.7644 160.494 87.8741 144.63 87.8741H123.94ZM137.131 70.0658V79.8899H142.408C149.871 79.8899 150.357 76.4879 150.357 74.9605V74.7522C150.357 73.2248 149.767 70.0658 142.408 70.0658H137.131Z" fill="url(#paint31_linear_677_2642)" style=""/>
<path d="M123.94 87.8741V62.0469H144.63C159.383 62.0469 164 67.6011 164 74.2662V75.3424C164 81.7644 160.494 87.8741 144.63 87.8741H123.94ZM137.131 70.0658V79.8899H142.408C149.871 79.8899 150.357 76.4879 150.357 74.9605V74.7522C150.357 73.2248 149.767 70.0658 142.408 70.0658H137.131Z" fill="url(#paint32_linear_677_2642)" style=""/>
<defs>
<linearGradient id="paint0_linear_677_2642" x1="81.5302" y1="58.6532" x2="81.5302" y2="-5.93453e-08" gradientUnits="userSpaceOnUse">
<stop stop-color="#EAEAEA" style="stop-color:#EAEAEA;stop-color:color(display-p3 0.9186 0.9186 0.9186);stop-opacity:1;"/>
<stop offset="0.5" stop-color="white" stop-opacity="0.8" style="stop-color:white;stop-opacity:0.8;"/>
<stop offset="1" stop-color="white" style="stop-color:white;stop-opacity:1;"/>
</linearGradient>
<linearGradient id="paint1_linear_677_2642" x1="163.998" y1="-0.000104757" x2="158.755" y2="70.4665" gradientUnits="userSpaceOnUse">
<stop stop-color="#FFF100" style="stop-color:#FFF100;stop-color:color(display-p3 1.0000 0.9451 0.0000);stop-opacity:1;"/>
<stop offset="0.33" stop-color="#FF0000" style="stop-color:#FF0000;stop-color:color(display-p3 1.0000 0.0000 0.0000);stop-opacity:1;"/>
<stop offset="0.66" stop-color="#0C00FF" style="stop-color:#0C00FF;stop-color:color(display-p3 0.0471 0.0000 1.0000);stop-opacity:1;"/>
<stop offset="1" stop-color="#00FF00" style="stop-color:#00FF00;stop-color:color(display-p3 0.0000 1.0000 0.0000);stop-opacity:1;"/>
</linearGradient>
<linearGradient id="paint2_linear_677_2642" x1="81.5302" y1="58.6532" x2="81.5302" y2="-5.93453e-08" gradientUnits="userSpaceOnUse">
<stop stop-color="#EAEAEA" style="stop-color:#EAEAEA;stop-color:color(display-p3 0.9186 0.9186 0.9186);stop-opacity:1;"/>
<stop offset="0.5" stop-color="white" stop-opacity="0.8" style="stop-color:white;stop-opacity:0.8;"/>
<stop offset="1" stop-color="white" style="stop-color:white;stop-opacity:1;"/>
</linearGradient>
<linearGradient id="paint3_linear_677_2642" x1="81.5302" y1="58.6532" x2="81.5302" y2="-5.93453e-08" gradientUnits="userSpaceOnUse">
<stop stop-color="#EAEAEA" style="stop-color:#EAEAEA;stop-color:color(display-p3 0.9186 0.9186 0.9186);stop-opacity:1;"/>
<stop offset="0.5" stop-color="white" stop-opacity="0.8" style="stop-color:white;stop-opacity:0.8;"/>
<stop offset="1" stop-color="white" style="stop-color:white;stop-opacity:1;"/>
</linearGradient>
<linearGradient id="paint4_linear_677_2642" x1="163.998" y1="-0.000104757" x2="158.755" y2="70.4665" gradientUnits="userSpaceOnUse">
<stop stop-color="#FFF100" style="stop-color:#FFF100;stop-color:color(display-p3 1.0000 0.9451 0.0000);stop-opacity:1;"/>
<stop offset="0.33" stop-color="#FF0000" style="stop-color:#FF0000;stop-color:color(display-p3 1.0000 0.0000 0.0000);stop-opacity:1;"/>
<stop offset="0.66" stop-color="#0C00FF" style="stop-color:#0C00FF;stop-color:color(display-p3 0.0471 0.0000 1.0000);stop-opacity:1;"/>
<stop offset="1" stop-color="#00FF00" style="stop-color:#00FF00;stop-color:color(display-p3 0.0000 1.0000 0.0000);stop-opacity:1;"/>
</linearGradient>
<linearGradient id="paint5_linear_677_2642" x1="81.5302" y1="58.6532" x2="81.5302" y2="-5.93453e-08" gradientUnits="userSpaceOnUse">
<stop stop-color="#EAEAEA" style="stop-color:#EAEAEA;stop-color:color(display-p3 0.9186 0.9186 0.9186);stop-opacity:1;"/>
<stop offset="0.5" stop-color="white" stop-opacity="0.8" style="stop-color:white;stop-opacity:0.8;"/>
<stop offset="1" stop-color="white" style="stop-color:white;stop-opacity:1;"/>
</linearGradient>
<linearGradient id="paint6_linear_677_2642" x1="81.5302" y1="58.6532" x2="81.5302" y2="-5.93453e-08" gradientUnits="userSpaceOnUse">
<stop stop-color="#EAEAEA" style="stop-color:#EAEAEA;stop-color:color(display-p3 0.9186 0.9186 0.9186);stop-opacity:1;"/>
<stop offset="0.5" stop-color="white" stop-opacity="0.8" style="stop-color:white;stop-opacity:0.8;"/>
<stop offset="1" stop-color="white" style="stop-color:white;stop-opacity:1;"/>
</linearGradient>
<linearGradient id="paint7_linear_677_2642" x1="163.998" y1="-0.000104757" x2="158.755" y2="70.4665" gradientUnits="userSpaceOnUse">
<stop stop-color="#FFF100" style="stop-color:#FFF100;stop-color:color(display-p3 1.0000 0.9451 0.0000);stop-opacity:1;"/>
<stop offset="0.33" stop-color="#FF0000" style="stop-color:#FF0000;stop-color:color(display-p3 1.0000 0.0000 0.0000);stop-opacity:1;"/>
<stop offset="0.66" stop-color="#0C00FF" style="stop-color:#0C00FF;stop-color:color(display-p3 0.0471 0.0000 1.0000);stop-opacity:1;"/>
<stop offset="1" stop-color="#00FF00" style="stop-color:#00FF00;stop-color:color(display-p3 0.0000 1.0000 0.0000);stop-opacity:1;"/>
</linearGradient>
<linearGradient id="paint8_linear_677_2642" x1="81.5302" y1="58.6532" x2="81.5302" y2="-5.93453e-08" gradientUnits="userSpaceOnUse">
<stop stop-color="#EAEAEA" style="stop-color:#EAEAEA;stop-color:color(display-p3 0.9186 0.9186 0.9186);stop-opacity:1;"/>
<stop offset="0.5" stop-color="white" stop-opacity="0.8" style="stop-color:white;stop-opacity:0.8;"/>
<stop offset="1" stop-color="white" style="stop-color:white;stop-opacity:1;"/>
</linearGradient>
<linearGradient id="paint9_linear_677_2642" x1="81.5302" y1="58.6532" x2="81.5302" y2="-5.93453e-08" gradientUnits="userSpaceOnUse">
<stop stop-color="#EAEAEA" style="stop-color:#EAEAEA;stop-color:color(display-p3 0.9186 0.9186 0.9186);stop-opacity:1;"/>
<stop offset="0.5" stop-color="white" stop-opacity="0.8" style="stop-color:white;stop-opacity:0.8;"/>
<stop offset="1" stop-color="white" style="stop-color:white;stop-opacity:1;"/>
</linearGradient>
<linearGradient id="paint10_linear_677_2642" x1="163.998" y1="-0.000104757" x2="158.755" y2="70.4665" gradientUnits="userSpaceOnUse">
<stop stop-color="#FFF100" style="stop-color:#FFF100;stop-color:color(display-p3 1.0000 0.9451 0.0000);stop-opacity:1;"/>
<stop offset="0.33" stop-color="#FF0000" style="stop-color:#FF0000;stop-color:color(display-p3 1.0000 0.0000 0.0000);stop-opacity:1;"/>
<stop offset="0.66" stop-color="#0C00FF" style="stop-color:#0C00FF;stop-color:color(display-p3 0.0471 0.0000 1.0000);stop-opacity:1;"/>
<stop offset="1" stop-color="#00FF00" style="stop-color:#00FF00;stop-color:color(display-p3 0.0000 1.0000 0.0000);stop-opacity:1;"/>
</linearGradient>
<linearGradient id="paint11_linear_677_2642" x1="81.5302" y1="58.6532" x2="81.5302" y2="-5.93453e-08" gradientUnits="userSpaceOnUse">
<stop stop-color="#EAEAEA" style="stop-color:#EAEAEA;stop-color:color(display-p3 0.9186 0.9186 0.9186);stop-opacity:1;"/>
<stop offset="0.5" stop-color="white" stop-opacity="0.8" style="stop-color:white;stop-opacity:0.8;"/>
<stop offset="1" stop-color="white" style="stop-color:white;stop-opacity:1;"/>
</linearGradient>
<linearGradient id="paint12_linear_677_2642" x1="81.5302" y1="58.6532" x2="81.5302" y2="-5.93453e-08" gradientUnits="userSpaceOnUse">
<stop stop-color="#EAEAEA" style="stop-color:#EAEAEA;stop-color:color(display-p3 0.9186 0.9186 0.9186);stop-opacity:1;"/>
<stop offset="0.5" stop-color="white" stop-opacity="0.8" style="stop-color:white;stop-opacity:0.8;"/>
<stop offset="1" stop-color="white" style="stop-color:white;stop-opacity:1;"/>
</linearGradient>
<linearGradient id="paint13_linear_677_2642" x1="163.998" y1="-0.000104757" x2="158.755" y2="70.4665" gradientUnits="userSpaceOnUse">
<stop stop-color="#FFF100" style="stop-color:#FFF100;stop-color:color(display-p3 1.0000 0.9451 0.0000);stop-opacity:1;"/>
<stop offset="0.33" stop-color="#FF0000" style="stop-color:#FF0000;stop-color:color(display-p3 1.0000 0.0000 0.0000);stop-opacity:1;"/>
<stop offset="0.66" stop-color="#0C00FF" style="stop-color:#0C00FF;stop-color:color(display-p3 0.0471 0.0000 1.0000);stop-opacity:1;"/>
<stop offset="1" stop-color="#00FF00" style="stop-color:#00FF00;stop-color:color(display-p3 0.0000 1.0000 0.0000);stop-opacity:1;"/>
</linearGradient>
<linearGradient id="paint14_linear_677_2642" x1="81.5302" y1="58.6532" x2="81.5302" y2="-5.93453e-08" gradientUnits="userSpaceOnUse">
<stop stop-color="#EAEAEA" style="stop-color:#EAEAEA;stop-color:color(display-p3 0.9186 0.9186 0.9186);stop-opacity:1;"/>
<stop offset="0.5" stop-color="white" stop-opacity="0.8" style="stop-color:white;stop-opacity:0.8;"/>
<stop offset="1" stop-color="white" style="stop-color:white;stop-opacity:1;"/>
</linearGradient>
<linearGradient id="paint15_linear_677_2642" x1="81.5302" y1="58.6532" x2="81.5302" y2="-5.93453e-08" gradientUnits="userSpaceOnUse">
<stop stop-color="#EAEAEA" style="stop-color:#EAEAEA;stop-color:color(display-p3 0.9186 0.9186 0.9186);stop-opacity:1;"/>
<stop offset="0.5" stop-color="white" stop-opacity="0.8" style="stop-color:white;stop-opacity:0.8;"/>
<stop offset="1" stop-color="white" style="stop-color:white;stop-opacity:1;"/>
</linearGradient>
<linearGradient id="paint16_linear_677_2642" x1="163.998" y1="-0.000104757" x2="158.755" y2="70.4665" gradientUnits="userSpaceOnUse">
<stop stop-color="#FFF100" style="stop-color:#FFF100;stop-color:color(display-p3 1.0000 0.9451 0.0000);stop-opacity:1;"/>
<stop offset="0.33" stop-color="#FF0000" style="stop-color:#FF0000;stop-color:color(display-p3 1.0000 0.0000 0.0000);stop-opacity:1;"/>
<stop offset="0.66" stop-color="#0C00FF" style="stop-color:#0C00FF;stop-color:color(display-p3 0.0471 0.0000 1.0000);stop-opacity:1;"/>
<stop offset="1" stop-color="#00FF00" style="stop-color:#00FF00;stop-color:color(display-p3 0.0000 1.0000 0.0000);stop-opacity:1;"/>
</linearGradient>
<linearGradient id="paint17_linear_677_2642" x1="81.5302" y1="58.6532" x2="81.5302" y2="-5.93453e-08" gradientUnits="userSpaceOnUse">
<stop stop-color="#EAEAEA" style="stop-color:#EAEAEA;stop-color:color(display-p3 0.9186 0.9186 0.9186);stop-opacity:1;"/>
<stop offset="0.5" stop-color="white" stop-opacity="0.8" style="stop-color:white;stop-opacity:0.8;"/>
<stop offset="1" stop-color="white" style="stop-color:white;stop-opacity:1;"/>
</linearGradient>
<linearGradient id="paint18_linear_677_2642" x1="81.5302" y1="58.6532" x2="81.5302" y2="-5.93453e-08" gradientUnits="userSpaceOnUse">
<stop stop-color="#EAEAEA" style="stop-color:#EAEAEA;stop-color:color(display-p3 0.9186 0.9186 0.9186);stop-opacity:1;"/>
<stop offset="0.5" stop-color="white" stop-opacity="0.8" style="stop-color:white;stop-opacity:0.8;"/>
<stop offset="1" stop-color="white" style="stop-color:white;stop-opacity:1;"/>
</linearGradient>
<linearGradient id="paint19_linear_677_2642" x1="163.998" y1="-0.000104757" x2="158.755" y2="70.4665" gradientUnits="userSpaceOnUse">
<stop stop-color="#FFF100" style="stop-color:#FFF100;stop-color:color(display-p3 1.0000 0.9451 0.0000);stop-opacity:1;"/>
<stop offset="0.33" stop-color="#FF0000" style="stop-color:#FF0000;stop-color:color(display-p3 1.0000 0.0000 0.0000);stop-opacity:1;"/>
<stop offset="0.66" stop-color="#0C00FF" style="stop-color:#0C00FF;stop-color:color(display-p3 0.0471 0.0000 1.0000);stop-opacity:1;"/>
<stop offset="1" stop-color="#00FF00" style="stop-color:#00FF00;stop-color:color(display-p3 0.0000 1.0000 0.0000);stop-opacity:1;"/>
</linearGradient>
<linearGradient id="paint20_linear_677_2642" x1="81.5302" y1="58.6532" x2="81.5302" y2="-5.93453e-08" gradientUnits="userSpaceOnUse">
<stop stop-color="#EAEAEA" style="stop-color:#EAEAEA;stop-color:color(display-p3 0.9186 0.9186 0.9186);stop-opacity:1;"/>
<stop offset="0.5" stop-color="white" stop-opacity="0.8" style="stop-color:white;stop-opacity:0.8;"/>
<stop offset="1" stop-color="white" style="stop-color:white;stop-opacity:1;"/>
</linearGradient>
<linearGradient id="paint21_linear_677_2642" x1="81.5302" y1="87.8741" x2="81.5302" y2="62.0469" gradientUnits="userSpaceOnUse">
<stop stop-color="#EAEAEA" style="stop-color:#EAEAEA;stop-color:color(display-p3 0.9186 0.9186 0.9186);stop-opacity:1;"/>
<stop offset="0.5" stop-color="white" stop-opacity="0.8" style="stop-color:white;stop-opacity:0.8;"/>
<stop offset="1" stop-color="white" style="stop-color:white;stop-opacity:1;"/>
</linearGradient>
<linearGradient id="paint22_linear_677_2642" x1="163.998" y1="62.0468" x2="162.977" y2="93.2143" gradientUnits="userSpaceOnUse">
<stop stop-color="#FFF100" style="stop-color:#FFF100;stop-color:color(display-p3 1.0000 0.9451 0.0000);stop-opacity:1;"/>
<stop offset="0.33" stop-color="#FF0000" style="stop-color:#FF0000;stop-color:color(display-p3 1.0000 0.0000 0.0000);stop-opacity:1;"/>
<stop offset="0.66" stop-color="#0C00FF" style="stop-color:#0C00FF;stop-color:color(display-p3 0.0471 0.0000 1.0000);stop-opacity:1;"/>
<stop offset="1" stop-color="#00FF00" style="stop-color:#00FF00;stop-color:color(display-p3 0.0000 1.0000 0.0000);stop-opacity:1;"/>
</linearGradient>
<linearGradient id="paint23_linear_677_2642" x1="81.5302" y1="87.8741" x2="81.5302" y2="62.0469" gradientUnits="userSpaceOnUse">
<stop stop-color="#EAEAEA" style="stop-color:#EAEAEA;stop-color:color(display-p3 0.9186 0.9186 0.9186);stop-opacity:1;"/>
<stop offset="0.5" stop-color="white" stop-opacity="0.8" style="stop-color:white;stop-opacity:0.8;"/>
<stop offset="1" stop-color="white" style="stop-color:white;stop-opacity:1;"/>
</linearGradient>
<linearGradient id="paint24_linear_677_2642" x1="81.5302" y1="87.8741" x2="81.5302" y2="62.0469" gradientUnits="userSpaceOnUse">
<stop stop-color="#EAEAEA" style="stop-color:#EAEAEA;stop-color:color(display-p3 0.9186 0.9186 0.9186);stop-opacity:1;"/>
<stop offset="0.5" stop-color="white" stop-opacity="0.8" style="stop-color:white;stop-opacity:0.8;"/>
<stop offset="1" stop-color="white" style="stop-color:white;stop-opacity:1;"/>
</linearGradient>
<linearGradient id="paint25_linear_677_2642" x1="163.998" y1="62.0468" x2="162.977" y2="93.2143" gradientUnits="userSpaceOnUse">
<stop stop-color="#FFF100" style="stop-color:#FFF100;stop-color:color(display-p3 1.0000 0.9451 0.0000);stop-opacity:1;"/>
<stop offset="0.33" stop-color="#FF0000" style="stop-color:#FF0000;stop-color:color(display-p3 1.0000 0.0000 0.0000);stop-opacity:1;"/>
<stop offset="0.66" stop-color="#0C00FF" style="stop-color:#0C00FF;stop-color:color(display-p3 0.0471 0.0000 1.0000);stop-opacity:1;"/>
<stop offset="1" stop-color="#00FF00" style="stop-color:#00FF00;stop-color:color(display-p3 0.0000 1.0000 0.0000);stop-opacity:1;"/>
</linearGradient>
<linearGradient id="paint26_linear_677_2642" x1="81.5302" y1="87.8741" x2="81.5302" y2="62.0469" gradientUnits="userSpaceOnUse">
<stop stop-color="#EAEAEA" style="stop-color:#EAEAEA;stop-color:color(display-p3 0.9186 0.9186 0.9186);stop-opacity:1;"/>
<stop offset="0.5" stop-color="white" stop-opacity="0.8" style="stop-color:white;stop-opacity:0.8;"/>
<stop offset="1" stop-color="white" style="stop-color:white;stop-opacity:1;"/>
</linearGradient>
<linearGradient id="paint27_linear_677_2642" x1="81.5302" y1="87.8741" x2="81.5302" y2="62.0469" gradientUnits="userSpaceOnUse">
<stop stop-color="#EAEAEA" style="stop-color:#EAEAEA;stop-color:color(display-p3 0.9186 0.9186 0.9186);stop-opacity:1;"/>
<stop offset="0.5" stop-color="white" stop-opacity="0.8" style="stop-color:white;stop-opacity:0.8;"/>
<stop offset="1" stop-color="white" style="stop-color:white;stop-opacity:1;"/>
</linearGradient>
<linearGradient id="paint28_linear_677_2642" x1="163.998" y1="62.0468" x2="162.977" y2="93.2143" gradientUnits="userSpaceOnUse">
<stop stop-color="#FFF100" style="stop-color:#FFF100;stop-color:color(display-p3 1.0000 0.9451 0.0000);stop-opacity:1;"/>
<stop offset="0.33" stop-color="#FF0000" style="stop-color:#FF0000;stop-color:color(display-p3 1.0000 0.0000 0.0000);stop-opacity:1;"/>
<stop offset="0.66" stop-color="#0C00FF" style="stop-color:#0C00FF;stop-color:color(display-p3 0.0471 0.0000 1.0000);stop-opacity:1;"/>
<stop offset="1" stop-color="#00FF00" style="stop-color:#00FF00;stop-color:color(display-p3 0.0000 1.0000 0.0000);stop-opacity:1;"/>
</linearGradient>
<linearGradient id="paint29_linear_677_2642" x1="81.5302" y1="87.8741" x2="81.5302" y2="62.0469" gradientUnits="userSpaceOnUse">
<stop stop-color="#EAEAEA" style="stop-color:#EAEAEA;stop-color:color(display-p3 0.9186 0.9186 0.9186);stop-opacity:1;"/>
<stop offset="0.5" stop-color="white" stop-opacity="0.8" style="stop-color:white;stop-opacity:0.8;"/>
<stop offset="1" stop-color="white" style="stop-color:white;stop-opacity:1;"/>
</linearGradient>
<linearGradient id="paint30_linear_677_2642" x1="81.5302" y1="87.8741" x2="81.5302" y2="62.0469" gradientUnits="userSpaceOnUse">
<stop stop-color="#EAEAEA" style="stop-color:#EAEAEA;stop-color:color(display-p3 0.9186 0.9186 0.9186);stop-opacity:1;"/>
<stop offset="0.5" stop-color="white" stop-opacity="0.8" style="stop-color:white;stop-opacity:0.8;"/>
<stop offset="1" stop-color="white" style="stop-color:white;stop-opacity:1;"/>
</linearGradient>
<linearGradient id="paint31_linear_677_2642" x1="163.998" y1="62.0468" x2="162.977" y2="93.2143" gradientUnits="userSpaceOnUse">
<stop stop-color="#FFF100" style="stop-color:#FFF100;stop-color:color(display-p3 1.0000 0.9451 0.0000);stop-opacity:1;"/>
<stop offset="0.33" stop-color="#FF0000" style="stop-color:#FF0000;stop-color:color(display-p3 1.0000 0.0000 0.0000);stop-opacity:1;"/>
<stop offset="0.66" stop-color="#0C00FF" style="stop-color:#0C00FF;stop-color:color(display-p3 0.0471 0.0000 1.0000);stop-opacity:1;"/>
<stop offset="1" stop-color="#00FF00" style="stop-color:#00FF00;stop-color:color(display-p3 0.0000 1.0000 0.0000);stop-opacity:1;"/>
</linearGradient>
<linearGradient id="paint32_linear_677_2642" x1="81.5302" y1="87.8741" x2="81.5302" y2="62.0469" gradientUnits="userSpaceOnUse">
<stop stop-color="#EAEAEA" style="stop-color:#EAEAEA;stop-color:color(display-p3 0.9186 0.9186 0.9186);stop-opacity:1;"/>
<stop offset="0.5" stop-color="white" stop-opacity="0.8" style="stop-color:white;stop-opacity:0.8;"/>
<stop offset="1" stop-color="white" style="stop-color:white;stop-opacity:1;"/>
</linearGradient>
</defs>
</svg>

