<svg width="164" height="91" viewBox="0 0 164 91" fill="none" xmlns="http://www.w3.org/2000/svg">
<path d="M0 90.8272V65H28.4308C36.2762 65 38.2202 67.916 38.2202 70.7972V71.0055C38.2202 73.9215 35.686 75.5878 33.0825 76.1432C36.415 76.6986 39.7476 78.3996 39.7476 82.9819V83.2596C39.7476 87.3211 36.9357 90.8272 28.4308 90.8272H0ZM22.4253 71.6998H13.1913V74.1992H22.4253C24.0568 74.1992 24.7511 73.8868 24.7511 72.9495V72.8801C24.7511 71.9081 24.0568 71.6998 22.4253 71.6998ZM22.946 80.6907H13.1913V83.8844H22.946C25.2024 83.8844 25.7231 83.2249 25.7231 82.2529V82.1834C25.7231 81.2115 25.2024 80.6907 22.946 80.6907Z" fill="black" style="fill:black;fill-opacity:1;"/>
<path d="M0 90.8272V65H28.4308C36.2762 65 38.2202 67.916 38.2202 70.7972V71.0055C38.2202 73.9215 35.686 75.5878 33.0825 76.1432C36.415 76.6986 39.7476 78.3996 39.7476 82.9819V83.2596C39.7476 87.3211 36.9357 90.8272 28.4308 90.8272H0ZM22.4253 71.6998H13.1913V74.1992H22.4253C24.0568 74.1992 24.7511 73.8868 24.7511 72.9495V72.8801C24.7511 71.9081 24.0568 71.6998 22.4253 71.6998ZM22.946 80.6907H13.1913V83.8844H22.946C25.2024 83.8844 25.7231 83.2249 25.7231 82.2529V82.1834C25.7231 81.2115 25.2024 80.6907 22.946 80.6907Z" fill="url(#paint0_linear_677_2642)" style=""/>
<path d="M0 90.8272V65H28.4308C36.2762 65 38.2202 67.916 38.2202 70.7972V71.0055C38.2202 73.9215 35.686 75.5878 33.0825 76.1432C36.415 76.6986 39.7476 78.3996 39.7476 82.9819V83.2596C39.7476 87.3211 36.9357 90.8272 28.4308 90.8272H0ZM22.4253 71.6998H13.1913V74.1992H22.4253C24.0568 74.1992 24.7511 73.8868 24.7511 72.9495V72.8801C24.7511 71.9081 24.0568 71.6998 22.4253 71.6998ZM22.946 80.6907H13.1913V83.8844H22.946C25.2024 83.8844 25.7231 83.2249 25.7231 82.2529V82.1834C25.7231 81.2115 25.2024 80.6907 22.946 80.6907Z" fill="white" style="fill:white;fill-opacity:1;"/>
<path d="M0 90.8272V65H28.4308C36.2762 65 38.2202 67.916 38.2202 70.7972V71.0055C38.2202 73.9215 35.686 75.5878 33.0825 76.1432C36.415 76.6986 39.7476 78.3996 39.7476 82.9819V83.2596C39.7476 87.3211 36.9357 90.8272 28.4308 90.8272H0ZM22.4253 71.6998H13.1913V74.1992H22.4253C24.0568 74.1992 24.7511 73.8868 24.7511 72.9495V72.8801C24.7511 71.9081 24.0568 71.6998 22.4253 71.6998ZM22.946 80.6907H13.1913V83.8844H22.946C25.2024 83.8844 25.7231 83.2249 25.7231 82.2529V82.1834C25.7231 81.2115 25.2024 80.6907 22.946 80.6907Z" fill="url(#paint1_linear_677_2642)" style=""/>
<path d="M0 90.8272V65H28.4308C36.2762 65 38.2202 67.916 38.2202 70.7972V71.0055C38.2202 73.9215 35.686 75.5878 33.0825 76.1432C36.415 76.6986 39.7476 78.3996 39.7476 82.9819V83.2596C39.7476 87.3211 36.9357 90.8272 28.4308 90.8272H0ZM22.4253 71.6998H13.1913V74.1992H22.4253C24.0568 74.1992 24.7511 73.8868 24.7511 72.9495V72.8801C24.7511 71.9081 24.0568 71.6998 22.4253 71.6998ZM22.946 80.6907H13.1913V83.8844H22.946C25.2024 83.8844 25.7231 83.2249 25.7231 82.2529V82.1834C25.7231 81.2115 25.2024 80.6907 22.946 80.6907Z" fill="url(#paint2_linear_677_2642)" style=""/>
<path d="M54.1431 75.3101H63.7589C65.564 75.3101 66.1541 74.6158 66.1541 73.6785C66.1541 72.7065 65.5293 72.047 63.7589 72.047H54.1431V75.3101ZM54.1431 82.5653V90.8272H40.9517V65H69.4867C75.0409 65 79.6579 66.3886 79.6579 71.5262V71.8387C79.6579 75.6919 76.0476 77.3235 73.6871 77.8095C77.818 78.6079 79.7967 80.9337 79.7967 84.301V88.2237C79.7967 89.5081 79.9703 90.0983 80.248 90.619V90.8272H66.6748C66.5013 90.6537 66.5013 90.4107 66.5013 90.0288V86.9046C66.5013 84.2663 65.2169 82.5653 61.5024 82.5653H54.1431Z" fill="black" style="fill:black;fill-opacity:1;"/>
<path d="M54.1431 75.3101H63.7589C65.564 75.3101 66.1541 74.6158 66.1541 73.6785C66.1541 72.7065 65.5293 72.047 63.7589 72.047H54.1431V75.3101ZM54.1431 82.5653V90.8272H40.9517V65H69.4867C75.0409 65 79.6579 66.3886 79.6579 71.5262V71.8387C79.6579 75.6919 76.0476 77.3235 73.6871 77.8095C77.818 78.6079 79.7967 80.9337 79.7967 84.301V88.2237C79.7967 89.5081 79.9703 90.0983 80.248 90.619V90.8272H66.6748C66.5013 90.6537 66.5013 90.4107 66.5013 90.0288V86.9046C66.5013 84.2663 65.2169 82.5653 61.5024 82.5653H54.1431Z" fill="url(#paint3_linear_677_2642)" style=""/>
<path d="M54.1431 75.3101H63.7589C65.564 75.3101 66.1541 74.6158 66.1541 73.6785C66.1541 72.7065 65.5293 72.047 63.7589 72.047H54.1431V75.3101ZM54.1431 82.5653V90.8272H40.9517V65H69.4867C75.0409 65 79.6579 66.3886 79.6579 71.5262V71.8387C79.6579 75.6919 76.0476 77.3235 73.6871 77.8095C77.818 78.6079 79.7967 80.9337 79.7967 84.301V88.2237C79.7967 89.5081 79.9703 90.0983 80.248 90.619V90.8272H66.6748C66.5013 90.6537 66.5013 90.4107 66.5013 90.0288V86.9046C66.5013 84.2663 65.2169 82.5653 61.5024 82.5653H54.1431Z" fill="white" style="fill:white;fill-opacity:1;"/>
<path d="M54.1431 75.3101H63.7589C65.564 75.3101 66.1541 74.6158 66.1541 73.6785C66.1541 72.7065 65.5293 72.047 63.7589 72.047H54.1431V75.3101ZM54.1431 82.5653V90.8272H40.9517V65H69.4867C75.0409 65 79.6579 66.3886 79.6579 71.5262V71.8387C79.6579 75.6919 76.0476 77.3235 73.6871 77.8095C77.818 78.6079 79.7967 80.9337 79.7967 84.301V88.2237C79.7967 89.5081 79.9703 90.0983 80.248 90.619V90.8272H66.6748C66.5013 90.6537 66.5013 90.4107 66.5013 90.0288V86.9046C66.5013 84.2663 65.2169 82.5653 61.5024 82.5653H54.1431Z" fill="url(#paint4_linear_677_2642)" style=""/>
<path d="M54.1431 75.3101H63.7589C65.564 75.3101 66.1541 74.6158 66.1541 73.6785C66.1541 72.7065 65.5293 72.047 63.7589 72.047H54.1431V75.3101ZM54.1431 82.5653V90.8272H40.9517V65H69.4867C75.0409 65 79.6579 66.3886 79.6579 71.5262V71.8387C79.6579 75.6919 76.0476 77.3235 73.6871 77.8095C77.818 78.6079 79.7967 80.9337 79.7967 84.301V88.2237C79.7967 89.5081 79.9703 90.0983 80.248 90.619V90.8272H66.6748C66.5013 90.6537 66.5013 90.4107 66.5013 90.0288V86.9046C66.5013 84.2663 65.2169 82.5653 61.5024 82.5653H54.1431Z" fill="url(#paint5_linear_677_2642)" style=""/>
<path d="M81.5644 65H96.4568L108.607 76.7333V65H121.798V90.8272H108.364L94.7558 77.9136V90.8272H81.5644V65Z" fill="black" style="fill:black;fill-opacity:1;"/>
<path d="M81.5644 65H96.4568L108.607 76.7333V65H121.798V90.8272H108.364L94.7558 77.9136V90.8272H81.5644V65Z" fill="url(#paint6_linear_677_2642)" style=""/>
<path d="M81.5644 65H96.4568L108.607 76.7333V65H121.798V90.8272H108.364L94.7558 77.9136V90.8272H81.5644V65Z" fill="white" style="fill:white;fill-opacity:1;"/>
<path d="M81.5644 65H96.4568L108.607 76.7333V65H121.798V90.8272H108.364L94.7558 77.9136V90.8272H81.5644V65Z" fill="url(#paint7_linear_677_2642)" style=""/>
<path d="M81.5644 65H96.4568L108.607 76.7333V65H121.798V90.8272H108.364L94.7558 77.9136V90.8272H81.5644V65Z" fill="url(#paint8_linear_677_2642)" style=""/>
<path d="M123.94 90.8272V65H144.63C159.383 65 164 70.5542 164 77.2193V78.2955C164 84.7176 160.494 90.8272 144.63 90.8272H123.94ZM137.131 73.0189V82.843H142.408C149.871 82.843 150.357 79.441 150.357 77.9136V77.7053C150.357 76.1779 149.767 73.0189 142.408 73.0189H137.131Z" fill="black" style="fill:black;fill-opacity:1;"/>
<path d="M123.94 90.8272V65H144.63C159.383 65 164 70.5542 164 77.2193V78.2955C164 84.7176 160.494 90.8272 144.63 90.8272H123.94ZM137.131 73.0189V82.843H142.408C149.871 82.843 150.357 79.441 150.357 77.9136V77.7053C150.357 76.1779 149.767 73.0189 142.408 73.0189H137.131Z" fill="url(#paint9_linear_677_2642)" style=""/>
<path d="M123.94 90.8272V65H144.63C159.383 65 164 70.5542 164 77.2193V78.2955C164 84.7176 160.494 90.8272 144.63 90.8272H123.94ZM137.131 73.0189V82.843H142.408C149.871 82.843 150.357 79.441 150.357 77.9136V77.7053C150.357 76.1779 149.767 73.0189 142.408 73.0189H137.131Z" fill="white" style="fill:white;fill-opacity:1;"/>
<path d="M123.94 90.8272V65H144.63C159.383 65 164 70.5542 164 77.2193V78.2955C164 84.7176 160.494 90.8272 144.63 90.8272H123.94ZM137.131 73.0189V82.843H142.408C149.871 82.843 150.357 79.441 150.357 77.9136V77.7053C150.357 76.1779 149.767 73.0189 142.408 73.0189H137.131Z" fill="url(#paint10_linear_677_2642)" style=""/>
<path d="M123.94 90.8272V65H144.63C159.383 65 164 70.5542 164 77.2193V78.2955C164 84.7176 160.494 90.8272 144.63 90.8272H123.94ZM137.131 73.0189V82.843H142.408C149.871 82.843 150.357 79.441 150.357 77.9136V77.7053C150.357 76.1779 149.767 73.0189 142.408 73.0189H137.131Z" fill="url(#paint11_linear_677_2642)" style=""/>
<path d="M0 59.177V0.551586H12.1646L14.0103 28.9975L15.8559 0.551586H27.6849V59.177H18.7922V26.3972L15.6881 59.177H11.9129L8.72495 26.3972V59.177H0Z" fill="white" style="fill:white;fill-opacity:1;"/>
<path d="M0 59.177V0.551586H12.1646L14.0103 28.9975L15.8559 0.551586H27.6849V59.177H18.7922V26.3972L15.6881 59.177H11.9129L8.72495 26.3972V59.177H0Z" fill="url(#paint12_linear_677_2642)" style=""/>
<path d="M0 59.177V0.551586H12.1646L14.0103 28.9975L15.8559 0.551586H27.6849V59.177H18.7922V26.3972L15.6881 59.177H11.9129L8.72495 26.3972V59.177H0Z" fill="url(#paint13_linear_677_2642)" style=""/>
<path d="M53.6593 11.5833V48.3817C53.6593 55.7099 49.3807 59.7286 42.4175 59.7286H40.6557C33.2731 59.7286 29.3301 55.6311 29.3301 48.3817V11.5833C29.3301 4.33387 32.6858 0 40.6557 0H42.3336C50.3035 0 53.6593 4.57026 53.6593 11.5833ZM42.7531 49.2485V10.4801C42.7531 9.29812 42.3336 8.74654 41.4947 8.74654C40.7396 8.74654 40.3201 9.29812 40.3201 10.4801V49.2485C40.3201 50.2729 40.7396 50.8245 41.4947 50.8245C42.3336 50.8245 42.7531 50.2729 42.7531 49.2485Z" fill="black" style="fill:black;fill-opacity:1;"/>
<path d="M53.6593 11.5833V48.3817C53.6593 55.7099 49.3807 59.7286 42.4175 59.7286H40.6557C33.2731 59.7286 29.3301 55.6311 29.3301 48.3817V11.5833C29.3301 4.33387 32.6858 0 40.6557 0H42.3336C50.3035 0 53.6593 4.57026 53.6593 11.5833ZM42.7531 49.2485V10.4801C42.7531 9.29812 42.3336 8.74654 41.4947 8.74654C40.7396 8.74654 40.3201 9.29812 40.3201 10.4801V49.2485C40.3201 50.2729 40.7396 50.8245 41.4947 50.8245C42.3336 50.8245 42.7531 50.2729 42.7531 49.2485Z" fill="url(#paint14_linear_677_2642)" style=""/>
<path d="M53.6593 11.5833V48.3817C53.6593 55.7099 49.3807 59.7286 42.4175 59.7286H40.6557C33.2731 59.7286 29.3301 55.6311 29.3301 48.3817V11.5833C29.3301 4.33387 32.6858 0 40.6557 0H42.3336C50.3035 0 53.6593 4.57026 53.6593 11.5833ZM42.7531 49.2485V10.4801C42.7531 9.29812 42.3336 8.74654 41.4947 8.74654C40.7396 8.74654 40.3201 9.29812 40.3201 10.4801V49.2485C40.3201 50.2729 40.7396 50.8245 41.4947 50.8245C42.3336 50.8245 42.7531 50.2729 42.7531 49.2485Z" fill="white" style="fill:white;fill-opacity:1;"/>
<path d="M53.6593 11.5833V48.3817C53.6593 55.7099 49.3807 59.7286 42.4175 59.7286H40.6557C33.2731 59.7286 29.3301 55.6311 29.3301 48.3817V11.5833C29.3301 4.33387 32.6858 0 40.6557 0H42.3336C50.3035 0 53.6593 4.57026 53.6593 11.5833ZM42.7531 49.2485V10.4801C42.7531 9.29812 42.3336 8.74654 41.4947 8.74654C40.7396 8.74654 40.3201 9.29812 40.3201 10.4801V49.2485C40.3201 50.2729 40.7396 50.8245 41.4947 50.8245C42.3336 50.8245 42.7531 50.2729 42.7531 49.2485Z" fill="url(#paint15_linear_677_2642)" style=""/>
<path d="M53.6593 11.5833V48.3817C53.6593 55.7099 49.3807 59.7286 42.4175 59.7286H40.6557C33.2731 59.7286 29.3301 55.6311 29.3301 48.3817V11.5833C29.3301 4.33387 32.6858 0 40.6557 0H42.3336C50.3035 0 53.6593 4.57026 53.6593 11.5833ZM42.7531 49.2485V10.4801C42.7531 9.29812 42.3336 8.74654 41.4947 8.74654C40.7396 8.74654 40.3201 9.29812 40.3201 10.4801V49.2485C40.3201 50.2729 40.7396 50.8245 41.4947 50.8245C42.3336 50.8245 42.7531 50.2729 42.7531 49.2485Z" fill="url(#paint16_linear_677_2642)" style=""/>
<path d="M55.3011 0.551586H66.0395L70.1503 32.307L70.0664 0.551586H78.8752V59.177H69.0597L64.1099 24.0333L64.1938 59.177H55.3011V0.551586Z" fill="black" style="fill:black;fill-opacity:1;"/>
<path d="M55.3011 0.551586H66.0395L70.1503 32.307L70.0664 0.551586H78.8752V59.177H69.0597L64.1099 24.0333L64.1938 59.177H55.3011V0.551586Z" fill="url(#paint17_linear_677_2642)" style=""/>
<path d="M55.3011 0.551586H66.0395L70.1503 32.307L70.0664 0.551586H78.8752V59.177H69.0597L64.1099 24.0333L64.1938 59.177H55.3011V0.551586Z" fill="white" style="fill:white;fill-opacity:1;"/>
<path d="M55.3011 0.551586H66.0395L70.1503 32.307L70.0664 0.551586H78.8752V59.177H69.0597L64.1099 24.0333L64.1938 59.177H55.3011V0.551586Z" fill="url(#paint18_linear_677_2642)" style=""/>
<path d="M55.3011 0.551586H66.0395L70.1503 32.307L70.0664 0.551586H78.8752V59.177H69.0597L64.1099 24.0333L64.1938 59.177H55.3011V0.551586Z" fill="url(#paint19_linear_677_2642)" style=""/>
<path d="M85.1489 59.177V9.53451H80.367V0.551586H100.418V9.53451H95.6356V59.177H85.1489Z" fill="black" style="fill:black;fill-opacity:1;"/>
<path d="M85.1489 59.177V9.53451H80.367V0.551586H100.418V9.53451H95.6356V59.177H85.1489Z" fill="url(#paint20_linear_677_2642)" style=""/>
<path d="M85.1489 59.177V9.53451H80.367V0.551586H100.418V9.53451H95.6356V59.177H85.1489Z" fill="white" style="fill:white;fill-opacity:1;"/>
<path d="M85.1489 59.177V9.53451H80.367V0.551586H100.418V9.53451H95.6356V59.177H85.1489Z" fill="url(#paint21_linear_677_2642)" style=""/>
<path d="M85.1489 59.177V9.53451H80.367V0.551586H100.418V9.53451H95.6356V59.177H85.1489Z" fill="url(#paint22_linear_677_2642)" style=""/>
<path d="M101.918 59.177V0.551586H112.572V23.3241H114.837V0.551586H125.408V59.177H114.837V33.6466H112.572V59.177H101.918Z" fill="black" style="fill:black;fill-opacity:1;"/>
<path d="M101.918 59.177V0.551586H112.572V23.3241H114.837V0.551586H125.408V59.177H114.837V33.6466H112.572V59.177H101.918Z" fill="url(#paint23_linear_677_2642)" style=""/>
<path d="M101.918 59.177V0.551586H112.572V23.3241H114.837V0.551586H125.408V59.177H114.837V33.6466H112.572V59.177H101.918Z" fill="white" style="fill:white;fill-opacity:1;"/>
<path d="M101.918 59.177V0.551586H112.572V23.3241H114.837V0.551586H125.408V59.177H114.837V33.6466H112.572V59.177H101.918Z" fill="url(#paint24_linear_677_2642)" style=""/>
<path d="M101.918 59.177V0.551586H112.572V23.3241H114.837V0.551586H125.408V59.177H114.837V33.6466H112.572V59.177H101.918Z" fill="url(#paint25_linear_677_2642)" style=""/>
<path d="M127.07 0.551586H137.64L137.724 49.8789H144.436L144.352 59.177H127.07V0.551586Z" fill="black" style="fill:black;fill-opacity:1;"/>
<path d="M127.07 0.551586H137.64L137.724 49.8789H144.436L144.352 59.177H127.07V0.551586Z" fill="url(#paint26_linear_677_2642)" style=""/>
<path d="M127.07 0.551586H137.64L137.724 49.8789H144.436L144.352 59.177H127.07V0.551586Z" fill="white" style="fill:white;fill-opacity:1;"/>
<path d="M127.07 0.551586H137.64L137.724 49.8789H144.436L144.352 59.177H127.07V0.551586Z" fill="url(#paint27_linear_677_2642)" style=""/>
<path d="M127.07 0.551586H137.64L137.724 49.8789H144.436L144.352 59.177H127.07V0.551586Z" fill="url(#paint28_linear_677_2642)" style=""/>
<path d="M146.952 59.177V36.0893L140.072 0.551586H150.643L152.489 20.8026L154.334 0.551586H163.814L157.522 36.0893V59.177H146.952Z" fill="black" style="fill:black;fill-opacity:1;"/>
<path d="M146.952 59.177V36.0893L140.072 0.551586H150.643L152.489 20.8026L154.334 0.551586H163.814L157.522 36.0893V59.177H146.952Z" fill="url(#paint29_linear_677_2642)" style=""/>
<path d="M146.952 59.177V36.0893L140.072 0.551586H150.643L152.489 20.8026L154.334 0.551586H163.814L157.522 36.0893V59.177H146.952Z" fill="white" style="fill:white;fill-opacity:1;"/>
<path d="M146.952 59.177V36.0893L140.072 0.551586H150.643L152.489 20.8026L154.334 0.551586H163.814L157.522 36.0893V59.177H146.952Z" fill="url(#paint30_linear_677_2642)" style=""/>
<path d="M146.952 59.177V36.0893L140.072 0.551586H150.643L152.489 20.8026L154.334 0.551586H163.814L157.522 36.0893V59.177H146.952Z" fill="url(#paint31_linear_677_2642)" style=""/>
<defs>
<linearGradient id="paint0_linear_677_2642" x1="81.5302" y1="90.8272" x2="81.5302" y2="65" gradientUnits="userSpaceOnUse">
<stop stop-color="#EAEAEA" style="stop-color:#EAEAEA;stop-color:color(display-p3 0.9186 0.9186 0.9186);stop-opacity:1;"/>
<stop offset="0.5" stop-color="white" stop-opacity="0.8" style="stop-color:white;stop-opacity:0.8;"/>
<stop offset="1" stop-color="white" style="stop-color:white;stop-opacity:1;"/>
</linearGradient>
<linearGradient id="paint1_linear_677_2642" x1="163.998" y1="65" x2="162.977" y2="96.1674" gradientUnits="userSpaceOnUse">
<stop stop-color="#FFF100" style="stop-color:#FFF100;stop-color:color(display-p3 1.0000 0.9451 0.0000);stop-opacity:1;"/>
<stop offset="0.33" stop-color="#FF0000" style="stop-color:#FF0000;stop-color:color(display-p3 1.0000 0.0000 0.0000);stop-opacity:1;"/>
<stop offset="0.66" stop-color="#0C00FF" style="stop-color:#0C00FF;stop-color:color(display-p3 0.0471 0.0000 1.0000);stop-opacity:1;"/>
<stop offset="1" stop-color="#00FF00" style="stop-color:#00FF00;stop-color:color(display-p3 0.0000 1.0000 0.0000);stop-opacity:1;"/>
</linearGradient>
<linearGradient id="paint2_linear_677_2642" x1="81.5302" y1="90.8272" x2="81.5302" y2="65" gradientUnits="userSpaceOnUse">
<stop stop-color="#EAEAEA" style="stop-color:#EAEAEA;stop-color:color(display-p3 0.9186 0.9186 0.9186);stop-opacity:1;"/>
<stop offset="0.5" stop-color="white" stop-opacity="0.8" style="stop-color:white;stop-opacity:0.8;"/>
<stop offset="1" stop-color="white" style="stop-color:white;stop-opacity:1;"/>
</linearGradient>
<linearGradient id="paint3_linear_677_2642" x1="81.5302" y1="90.8272" x2="81.5302" y2="65" gradientUnits="userSpaceOnUse">
<stop stop-color="#EAEAEA" style="stop-color:#EAEAEA;stop-color:color(display-p3 0.9186 0.9186 0.9186);stop-opacity:1;"/>
<stop offset="0.5" stop-color="white" stop-opacity="0.8" style="stop-color:white;stop-opacity:0.8;"/>
<stop offset="1" stop-color="white" style="stop-color:white;stop-opacity:1;"/>
</linearGradient>
<linearGradient id="paint4_linear_677_2642" x1="163.998" y1="65" x2="162.977" y2="96.1674" gradientUnits="userSpaceOnUse">
<stop stop-color="#FFF100" style="stop-color:#FFF100;stop-color:color(display-p3 1.0000 0.9451 0.0000);stop-opacity:1;"/>
<stop offset="0.33" stop-color="#FF0000" style="stop-color:#FF0000;stop-color:color(display-p3 1.0000 0.0000 0.0000);stop-opacity:1;"/>
<stop offset="0.66" stop-color="#0C00FF" style="stop-color:#0C00FF;stop-color:color(display-p3 0.0471 0.0000 1.0000);stop-opacity:1;"/>
<stop offset="1" stop-color="#00FF00" style="stop-color:#00FF00;stop-color:color(display-p3 0.0000 1.0000 0.0000);stop-opacity:1;"/>
</linearGradient>
<linearGradient id="paint5_linear_677_2642" x1="81.5302" y1="90.8272" x2="81.5302" y2="65" gradientUnits="userSpaceOnUse">
<stop stop-color="#EAEAEA" style="stop-color:#EAEAEA;stop-color:color(display-p3 0.9186 0.9186 0.9186);stop-opacity:1;"/>
<stop offset="0.5" stop-color="white" stop-opacity="0.8" style="stop-color:white;stop-opacity:0.8;"/>
<stop offset="1" stop-color="white" style="stop-color:white;stop-opacity:1;"/>
</linearGradient>
<linearGradient id="paint6_linear_677_2642" x1="81.5302" y1="90.8272" x2="81.5302" y2="65" gradientUnits="userSpaceOnUse">
<stop stop-color="#EAEAEA" style="stop-color:#EAEAEA;stop-color:color(display-p3 0.9186 0.9186 0.9186);stop-opacity:1;"/>
<stop offset="0.5" stop-color="white" stop-opacity="0.8" style="stop-color:white;stop-opacity:0.8;"/>
<stop offset="1" stop-color="white" style="stop-color:white;stop-opacity:1;"/>
</linearGradient>
<linearGradient id="paint7_linear_677_2642" x1="163.998" y1="65" x2="162.977" y2="96.1674" gradientUnits="userSpaceOnUse">
<stop stop-color="#FFF100" style="stop-color:#FFF100;stop-color:color(display-p3 1.0000 0.9451 0.0000);stop-opacity:1;"/>
<stop offset="0.33" stop-color="#FF0000" style="stop-color:#FF0000;stop-color:color(display-p3 1.0000 0.0000 0.0000);stop-opacity:1;"/>
<stop offset="0.66" stop-color="#0C00FF" style="stop-color:#0C00FF;stop-color:color(display-p3 0.0471 0.0000 1.0000);stop-opacity:1;"/>
<stop offset="1" stop-color="#00FF00" style="stop-color:#00FF00;stop-color:color(display-p3 0.0000 1.0000 0.0000);stop-opacity:1;"/>
</linearGradient>
<linearGradient id="paint8_linear_677_2642" x1="81.5302" y1="90.8272" x2="81.5302" y2="65" gradientUnits="userSpaceOnUse">
<stop stop-color="#EAEAEA" style="stop-color:#EAEAEA;stop-color:color(display-p3 0.9186 0.9186 0.9186);stop-opacity:1;"/>
<stop offset="0.5" stop-color="white" stop-opacity="0.8" style="stop-color:white;stop-opacity:0.8;"/>
<stop offset="1" stop-color="white" style="stop-color:white;stop-opacity:1;"/>
</linearGradient>
<linearGradient id="paint9_linear_677_2642" x1="81.5302" y1="90.8272" x2="81.5302" y2="65" gradientUnits="userSpaceOnUse">
<stop stop-color="#EAEAEA" style="stop-color:#EAEAEA;stop-color:color(display-p3 0.9186 0.9186 0.9186);stop-opacity:1;"/>
<stop offset="0.5" stop-color="white" stop-opacity="0.8" style="stop-color:white;stop-opacity:0.8;"/>
<stop offset="1" stop-color="white" style="stop-color:white;stop-opacity:1;"/>
</linearGradient>
<linearGradient id="paint10_linear_677_2642" x1="163.998" y1="65" x2="162.977" y2="96.1674" gradientUnits="userSpaceOnUse">
<stop stop-color="#FFF100" style="stop-color:#FFF100;stop-color:color(display-p3 1.0000 0.9451 0.0000);stop-opacity:1;"/>
<stop offset="0.33" stop-color="#FF0000" style="stop-color:#FF0000;stop-color:color(display-p3 1.0000 0.0000 0.0000);stop-opacity:1;"/>
<stop offset="0.66" stop-color="#0C00FF" style="stop-color:#0C00FF;stop-color:color(display-p3 0.0471 0.0000 1.0000);stop-opacity:1;"/>
<stop offset="1" stop-color="#00FF00" style="stop-color:#00FF00;stop-color:color(display-p3 0.0000 1.0000 0.0000);stop-opacity:1;"/>
</linearGradient>
<linearGradient id="paint11_linear_677_2642" x1="81.5302" y1="90.8272" x2="81.5302" y2="65" gradientUnits="userSpaceOnUse">
<stop stop-color="#EAEAEA" style="stop-color:#EAEAEA;stop-color:color(display-p3 0.9186 0.9186 0.9186);stop-opacity:1;"/>
<stop offset="0.5" stop-color="white" stop-opacity="0.8" style="stop-color:white;stop-opacity:0.8;"/>
<stop offset="1" stop-color="white" style="stop-color:white;stop-opacity:1;"/>
</linearGradient>
<linearGradient id="paint12_linear_677_2642" x1="163.813" y1="-0.000106679" x2="158.37" y2="71.7436" gradientUnits="userSpaceOnUse">
<stop stop-color="#FFF100" style="stop-color:#FFF100;stop-color:color(display-p3 1.0000 0.9451 0.0000);stop-opacity:1;"/>
<stop offset="0.33" stop-color="#FF0000" style="stop-color:#FF0000;stop-color:color(display-p3 1.0000 0.0000 0.0000);stop-opacity:1;"/>
<stop offset="0.66" stop-color="#0C00FF" style="stop-color:#0C00FF;stop-color:color(display-p3 0.0471 0.0000 1.0000);stop-opacity:1;"/>
<stop offset="1" stop-color="#00FF00" style="stop-color:#00FF00;stop-color:color(display-p3 0.0000 1.0000 0.0000);stop-opacity:1;"/>
</linearGradient>
<linearGradient id="paint13_linear_677_2642" x1="81.4379" y1="59.7291" x2="81.4379" y2="-6.0434e-08" gradientUnits="userSpaceOnUse">
<stop stop-color="#EAEAEA" style="stop-color:#EAEAEA;stop-color:color(display-p3 0.9186 0.9186 0.9186);stop-opacity:1;"/>
<stop offset="0.5" stop-color="white" stop-opacity="0.8" style="stop-color:white;stop-opacity:0.8;"/>
<stop offset="1" stop-color="white" style="stop-color:white;stop-opacity:1;"/>
</linearGradient>
<linearGradient id="paint14_linear_677_2642" x1="81.4379" y1="88" x2="81.4379" y2="-8.90385e-08" gradientUnits="userSpaceOnUse">
<stop stop-color="#EAEAEA" style="stop-color:#EAEAEA;stop-color:color(display-p3 0.9186 0.9186 0.9186);stop-opacity:1;"/>
<stop offset="0.5" stop-color="white" stop-opacity="0.8" style="stop-color:white;stop-opacity:0.8;"/>
<stop offset="1" stop-color="white" style="stop-color:white;stop-opacity:1;"/>
</linearGradient>
<linearGradient id="paint15_linear_677_2642" x1="163.813" y1="-0.000157171" x2="152.077" y2="104.998" gradientUnits="userSpaceOnUse">
<stop stop-color="#FFF100" style="stop-color:#FFF100;stop-color:color(display-p3 1.0000 0.9451 0.0000);stop-opacity:1;"/>
<stop offset="0.33" stop-color="#FF0000" style="stop-color:#FF0000;stop-color:color(display-p3 1.0000 0.0000 0.0000);stop-opacity:1;"/>
<stop offset="0.66" stop-color="#0C00FF" style="stop-color:#0C00FF;stop-color:color(display-p3 0.0471 0.0000 1.0000);stop-opacity:1;"/>
<stop offset="1" stop-color="#00FF00" style="stop-color:#00FF00;stop-color:color(display-p3 0.0000 1.0000 0.0000);stop-opacity:1;"/>
</linearGradient>
<linearGradient id="paint16_linear_677_2642" x1="81.4379" y1="88" x2="81.4379" y2="-8.90385e-08" gradientUnits="userSpaceOnUse">
<stop stop-color="#EAEAEA" style="stop-color:#EAEAEA;stop-color:color(display-p3 0.9186 0.9186 0.9186);stop-opacity:1;"/>
<stop offset="0.5" stop-color="white" stop-opacity="0.8" style="stop-color:white;stop-opacity:0.8;"/>
<stop offset="1" stop-color="white" style="stop-color:white;stop-opacity:1;"/>
</linearGradient>
<linearGradient id="paint17_linear_677_2642" x1="81.4379" y1="88" x2="81.4379" y2="-8.90385e-08" gradientUnits="userSpaceOnUse">
<stop stop-color="#EAEAEA" style="stop-color:#EAEAEA;stop-color:color(display-p3 0.9186 0.9186 0.9186);stop-opacity:1;"/>
<stop offset="0.5" stop-color="white" stop-opacity="0.8" style="stop-color:white;stop-opacity:0.8;"/>
<stop offset="1" stop-color="white" style="stop-color:white;stop-opacity:1;"/>
</linearGradient>
<linearGradient id="paint18_linear_677_2642" x1="163.813" y1="-0.000157171" x2="152.077" y2="104.998" gradientUnits="userSpaceOnUse">
<stop stop-color="#FFF100" style="stop-color:#FFF100;stop-color:color(display-p3 1.0000 0.9451 0.0000);stop-opacity:1;"/>
<stop offset="0.33" stop-color="#FF0000" style="stop-color:#FF0000;stop-color:color(display-p3 1.0000 0.0000 0.0000);stop-opacity:1;"/>
<stop offset="0.66" stop-color="#0C00FF" style="stop-color:#0C00FF;stop-color:color(display-p3 0.0471 0.0000 1.0000);stop-opacity:1;"/>
<stop offset="1" stop-color="#00FF00" style="stop-color:#00FF00;stop-color:color(display-p3 0.0000 1.0000 0.0000);stop-opacity:1;"/>
</linearGradient>
<linearGradient id="paint19_linear_677_2642" x1="81.4379" y1="88" x2="81.4379" y2="-8.90385e-08" gradientUnits="userSpaceOnUse">
<stop stop-color="#EAEAEA" style="stop-color:#EAEAEA;stop-color:color(display-p3 0.9186 0.9186 0.9186);stop-opacity:1;"/>
<stop offset="0.5" stop-color="white" stop-opacity="0.8" style="stop-color:white;stop-opacity:0.8;"/>
<stop offset="1" stop-color="white" style="stop-color:white;stop-opacity:1;"/>
</linearGradient>
<linearGradient id="paint20_linear_677_2642" x1="81.4379" y1="88" x2="81.4379" y2="-8.90385e-08" gradientUnits="userSpaceOnUse">
<stop stop-color="#EAEAEA" style="stop-color:#EAEAEA;stop-color:color(display-p3 0.9186 0.9186 0.9186);stop-opacity:1;"/>
<stop offset="0.5" stop-color="white" stop-opacity="0.8" style="stop-color:white;stop-opacity:0.8;"/>
<stop offset="1" stop-color="white" style="stop-color:white;stop-opacity:1;"/>
</linearGradient>
<linearGradient id="paint21_linear_677_2642" x1="163.813" y1="-0.000157171" x2="152.077" y2="104.998" gradientUnits="userSpaceOnUse">
<stop stop-color="#FFF100" style="stop-color:#FFF100;stop-color:color(display-p3 1.0000 0.9451 0.0000);stop-opacity:1;"/>
<stop offset="0.33" stop-color="#FF0000" style="stop-color:#FF0000;stop-color:color(display-p3 1.0000 0.0000 0.0000);stop-opacity:1;"/>
<stop offset="0.66" stop-color="#0C00FF" style="stop-color:#0C00FF;stop-color:color(display-p3 0.0471 0.0000 1.0000);stop-opacity:1;"/>
<stop offset="1" stop-color="#00FF00" style="stop-color:#00FF00;stop-color:color(display-p3 0.0000 1.0000 0.0000);stop-opacity:1;"/>
</linearGradient>
<linearGradient id="paint22_linear_677_2642" x1="81.4379" y1="88" x2="81.4379" y2="-8.90385e-08" gradientUnits="userSpaceOnUse">
<stop stop-color="#EAEAEA" style="stop-color:#EAEAEA;stop-color:color(display-p3 0.9186 0.9186 0.9186);stop-opacity:1;"/>
<stop offset="0.5" stop-color="white" stop-opacity="0.8" style="stop-color:white;stop-opacity:0.8;"/>
<stop offset="1" stop-color="white" style="stop-color:white;stop-opacity:1;"/>
</linearGradient>
<linearGradient id="paint23_linear_677_2642" x1="81.4379" y1="88" x2="81.4379" y2="-8.90385e-08" gradientUnits="userSpaceOnUse">
<stop stop-color="#EAEAEA" style="stop-color:#EAEAEA;stop-color:color(display-p3 0.9186 0.9186 0.9186);stop-opacity:1;"/>
<stop offset="0.5" stop-color="white" stop-opacity="0.8" style="stop-color:white;stop-opacity:0.8;"/>
<stop offset="1" stop-color="white" style="stop-color:white;stop-opacity:1;"/>
</linearGradient>
<linearGradient id="paint24_linear_677_2642" x1="163.813" y1="-0.000157171" x2="152.077" y2="104.998" gradientUnits="userSpaceOnUse">
<stop stop-color="#FFF100" style="stop-color:#FFF100;stop-color:color(display-p3 1.0000 0.9451 0.0000);stop-opacity:1;"/>
<stop offset="0.33" stop-color="#FF0000" style="stop-color:#FF0000;stop-color:color(display-p3 1.0000 0.0000 0.0000);stop-opacity:1;"/>
<stop offset="0.66" stop-color="#0C00FF" style="stop-color:#0C00FF;stop-color:color(display-p3 0.0471 0.0000 1.0000);stop-opacity:1;"/>
<stop offset="1" stop-color="#00FF00" style="stop-color:#00FF00;stop-color:color(display-p3 0.0000 1.0000 0.0000);stop-opacity:1;"/>
</linearGradient>
<linearGradient id="paint25_linear_677_2642" x1="81.4379" y1="88" x2="81.4379" y2="-8.90385e-08" gradientUnits="userSpaceOnUse">
<stop stop-color="#EAEAEA" style="stop-color:#EAEAEA;stop-color:color(display-p3 0.9186 0.9186 0.9186);stop-opacity:1;"/>
<stop offset="0.5" stop-color="white" stop-opacity="0.8" style="stop-color:white;stop-opacity:0.8;"/>
<stop offset="1" stop-color="white" style="stop-color:white;stop-opacity:1;"/>
</linearGradient>
<linearGradient id="paint26_linear_677_2642" x1="81.4379" y1="88" x2="81.4379" y2="-8.90385e-08" gradientUnits="userSpaceOnUse">
<stop stop-color="#EAEAEA" style="stop-color:#EAEAEA;stop-color:color(display-p3 0.9186 0.9186 0.9186);stop-opacity:1;"/>
<stop offset="0.5" stop-color="white" stop-opacity="0.8" style="stop-color:white;stop-opacity:0.8;"/>
<stop offset="1" stop-color="white" style="stop-color:white;stop-opacity:1;"/>
</linearGradient>
<linearGradient id="paint27_linear_677_2642" x1="163.813" y1="-0.000157171" x2="152.077" y2="104.998" gradientUnits="userSpaceOnUse">
<stop stop-color="#FFF100" style="stop-color:#FFF100;stop-color:color(display-p3 1.0000 0.9451 0.0000);stop-opacity:1;"/>
<stop offset="0.33" stop-color="#FF0000" style="stop-color:#FF0000;stop-color:color(display-p3 1.0000 0.0000 0.0000);stop-opacity:1;"/>
<stop offset="0.66" stop-color="#0C00FF" style="stop-color:#0C00FF;stop-color:color(display-p3 0.0471 0.0000 1.0000);stop-opacity:1;"/>
<stop offset="1" stop-color="#00FF00" style="stop-color:#00FF00;stop-color:color(display-p3 0.0000 1.0000 0.0000);stop-opacity:1;"/>
</linearGradient>
<linearGradient id="paint28_linear_677_2642" x1="81.4379" y1="88" x2="81.4379" y2="-8.90385e-08" gradientUnits="userSpaceOnUse">
<stop stop-color="#EAEAEA" style="stop-color:#EAEAEA;stop-color:color(display-p3 0.9186 0.9186 0.9186);stop-opacity:1;"/>
<stop offset="0.5" stop-color="white" stop-opacity="0.8" style="stop-color:white;stop-opacity:0.8;"/>
<stop offset="1" stop-color="white" style="stop-color:white;stop-opacity:1;"/>
</linearGradient>
<linearGradient id="paint29_linear_677_2642" x1="81.4379" y1="88" x2="81.4379" y2="-8.90385e-08" gradientUnits="userSpaceOnUse">
<stop stop-color="#EAEAEA" style="stop-color:#EAEAEA;stop-color:color(display-p3 0.9186 0.9186 0.9186);stop-opacity:1;"/>
<stop offset="0.5" stop-color="white" stop-opacity="0.8" style="stop-color:white;stop-opacity:0.8;"/>
<stop offset="1" stop-color="white" style="stop-color:white;stop-opacity:1;"/>
</linearGradient>
<linearGradient id="paint30_linear_677_2642" x1="163.813" y1="-0.000157171" x2="152.077" y2="104.998" gradientUnits="userSpaceOnUse">
<stop stop-color="#FFF100" style="stop-color:#FFF100;stop-color:color(display-p3 1.0000 0.9451 0.0000);stop-opacity:1;"/>
<stop offset="0.33" stop-color="#FF0000" style="stop-color:#FF0000;stop-color:color(display-p3 1.0000 0.0000 0.0000);stop-opacity:1;"/>
<stop offset="0.66" stop-color="#0C00FF" style="stop-color:#0C00FF;stop-color:color(display-p3 0.0471 0.0000 1.0000);stop-opacity:1;"/>
<stop offset="1" stop-color="#00FF00" style="stop-color:#00FF00;stop-color:color(display-p3 0.0000 1.0000 0.0000);stop-opacity:1;"/>
</linearGradient>
<linearGradient id="paint31_linear_677_2642" x1="81.4379" y1="88" x2="81.4379" y2="-8.90385e-08" gradientUnits="userSpaceOnUse">
<stop stop-color="#EAEAEA" style="stop-color:#EAEAEA;stop-color:color(display-p3 0.9186 0.9186 0.9186);stop-opacity:1;"/>
<stop offset="0.5" stop-color="white" stop-opacity="0.8" style="stop-color:white;stop-opacity:0.8;"/>
<stop offset="1" stop-color="white" style="stop-color:white;stop-opacity:1;"/>
</linearGradient>
</defs>
</svg>

