<svg width="366" height="196" viewBox="0 0 366 196" fill="none" xmlns="http://www.w3.org/2000/svg">
<path d="M0 57.6389V0H63.4492C80.9578 0 85.2962 6.50761 85.2962 12.9378V13.4026C85.2962 19.9102 79.6408 23.6288 73.8304 24.8684C81.2677 26.1079 88.705 29.904 88.705 40.1303V40.7501C88.705 49.8142 82.4298 57.6389 63.4492 57.6389H0ZM50.0466 14.952H29.4392V20.53H50.0466C53.6878 20.53 55.2372 19.8327 55.2372 17.741V17.5861C55.2372 15.4168 53.6878 14.952 50.0466 14.952ZM51.2087 35.0172H29.4392V42.1445H51.2087C56.2444 42.1445 57.4064 40.6726 57.4064 38.5034V38.3484C57.4064 36.1792 56.2444 35.0172 51.2087 35.0172Z" fill="#353338" style="fill:#353338;fill:color(display-p3 0.2078 0.2000 0.2196);fill-opacity:1;"/>
<path d="M120.831 23.0091H142.291C146.32 23.0091 147.637 21.4596 147.637 19.3679C147.637 17.1987 146.242 15.7267 142.291 15.7267H120.831V23.0091ZM120.831 39.2006V57.6389H91.3923V0H155.074C167.469 0 177.773 3.09886 177.773 14.5647V15.2619C177.773 23.8612 169.716 27.5024 164.448 28.587C173.667 30.3689 178.083 35.5595 178.083 43.0742V51.8285C178.083 54.6949 178.47 56.012 179.09 57.174V57.6389H148.799C148.411 57.2515 148.411 56.7092 148.411 55.857V48.8846C148.411 42.9967 145.545 39.2006 137.255 39.2006H120.831Z" fill="#353338" style="fill:#353338;fill:color(display-p3 0.2078 0.2000 0.2196);fill-opacity:1;"/>
<path d="M182.028 0H215.263L242.378 26.1854V0H271.818V57.6389H241.836L211.467 28.8194V57.6389H182.028V0Z" fill="#353338" style="fill:#353338;fill:color(display-p3 0.2078 0.2000 0.2196);fill-opacity:1;"/>
<path d="M276.598 57.6389V0H322.771C355.696 0 366 12.3954 366 27.27V29.6716C366 44.0039 358.175 57.6389 322.771 57.6389H276.598ZM306.037 17.8959V39.8204H317.813C334.469 39.8204 335.554 32.2282 335.554 28.8194V28.3546C335.554 24.9459 334.237 17.8959 317.813 17.8959H306.037Z" fill="#353338" style="fill:#353338;fill:color(display-p3 0.2078 0.2000 0.2196);fill-opacity:1;"/>
<path d="M46.24 87.5989V170.071C46.24 186.495 38.1082 195.502 24.8739 195.502H21.5255C7.49407 195.502 0 186.318 0 170.071V87.5989C0 71.3517 6.37793 61.6387 21.5255 61.6387H24.7145C39.8621 61.6387 46.24 71.8815 46.24 87.5989ZM25.5117 172.014V85.1265C25.5117 82.4775 24.7145 81.2413 23.12 81.2413C21.685 81.2413 20.8877 82.4775 20.8877 85.1265V172.014C20.8877 174.31 21.685 175.546 23.12 175.546C24.7145 175.546 25.5117 174.31 25.5117 172.014Z" fill="#353338" style="fill:#353338;fill:color(display-p3 0.2078 0.2000 0.2196);fill-opacity:1;"/>
<path d="M49.3605 194.265V62.8749H83.1635V83.0073H69.1321V115.149H80.7718L80.9313 135.811H69.1321V194.265H49.3605Z" fill="#353338" style="fill:#353338;fill:color(display-p3 0.2078 0.2000 0.2196);fill-opacity:1;"/>
<path d="M107.335 194.265V83.0073H98.2464V62.8749H136.355V83.0073H127.266V194.265H107.335Z" fill="#353338" style="fill:#353338;fill:color(display-p3 0.2078 0.2000 0.2196);fill-opacity:1;"/>
<path d="M139.206 194.265V62.8749H159.456V113.912H163.761V62.8749H183.851V194.265H163.761V137.047H159.456V194.265H139.206Z" fill="#353338" style="fill:#353338;fill:color(display-p3 0.2078 0.2000 0.2196);fill-opacity:1;"/>
<path d="M187.009 62.8749H221.131V83.0073H206.781V114.972H218.899V135.811H206.781V173.78H221.61V194.265H187.009V62.8749Z" fill="#353338" style="fill:#353338;fill:color(display-p3 0.2078 0.2000 0.2196);fill-opacity:1;"/>
<path d="M236.993 194.265V62.8749H265.853C274.622 62.8749 281.479 67.8197 281.479 81.7711V174.31C281.479 188.261 275.101 194.265 266.172 194.265H236.993ZM256.764 80.8881V175.722H258.678C260.591 175.722 261.069 174.31 261.069 171.307V84.9499C261.069 82.3009 260.591 80.8881 258.678 80.8881H256.764Z" fill="#353338" style="fill:#353338;fill:color(display-p3 0.2078 0.2000 0.2196);fill-opacity:1;"/>
<path d="M306.659 151.352L304.267 101.374L301.876 151.352H306.659ZM308.732 194.265L307.616 170.601H300.759L299.643 194.265H282.263L292.149 62.8749H317.661L328.344 194.265H308.732Z" fill="#353338" style="fill:#353338;fill:color(display-p3 0.2078 0.2000 0.2196);fill-opacity:1;"/>
<path d="M333.951 194.265V142.522L320.876 62.8749H340.967L344.474 108.261L347.982 62.8749H366L354.041 142.522V194.265H333.951Z" fill="#353338" style="fill:#353338;fill:color(display-p3 0.2078 0.2000 0.2196);fill-opacity:1;"/>
</svg>

