<svg width="165" height="89" viewBox="0 0 165 89" fill="none" xmlns="http://www.w3.org/2000/svg">
<path d="M17.531 38.2378V80.2097C17.531 85.9116 14.5167 89 9.36046 89H8.2499C2.85574 89 0 85.8324 0 80.2097V38.2378C0 32.6151 2.53843 29.2891 8.2499 29.2891H9.36046C15.0719 29.2891 17.531 32.7735 17.531 38.2378ZM9.67777 80.8432V37.4459C9.67777 36.5748 9.36047 36.0996 8.80518 36.0996C8.2499 36.0996 7.9326 36.5748 7.9326 37.4459V80.8432C7.9326 81.7144 8.2499 82.1103 8.80518 82.1103C9.36047 82.1103 9.67777 81.7144 9.67777 80.8432Z" fill="url(#paint0_linear_677_2642)" style=""/>
<path d="M17.531 38.2378V80.2097C17.531 85.9116 14.5167 89 9.36046 89H8.2499C2.85574 89 0 85.8324 0 80.2097V38.2378C0 32.6151 2.53843 29.2891 8.2499 29.2891H9.36046C15.0719 29.2891 17.531 32.7735 17.531 38.2378ZM9.67777 80.8432V37.4459C9.67777 36.5748 9.36047 36.0996 8.80518 36.0996C8.2499 36.0996 7.9326 36.5748 7.9326 37.4459V80.8432C7.9326 81.7144 8.2499 82.1103 8.80518 82.1103C9.36047 82.1103 9.67777 81.7144 9.67777 80.8432Z" fill="white" style="fill:white;fill-opacity:1;"/>
<path d="M17.531 38.2378V80.2097C17.531 85.9116 14.5167 89 9.36046 89H8.2499C2.85574 89 0 85.8324 0 80.2097V38.2378C0 32.6151 2.53843 29.2891 8.2499 29.2891H9.36046C15.0719 29.2891 17.531 32.7735 17.531 38.2378ZM9.67777 80.8432V37.4459C9.67777 36.5748 9.36047 36.0996 8.80518 36.0996C8.2499 36.0996 7.9326 36.5748 7.9326 37.4459V80.8432C7.9326 81.7144 8.2499 82.1103 8.80518 82.1103C9.36047 82.1103 9.67777 81.7144 9.67777 80.8432Z" fill="url(#paint1_linear_677_2642)" style=""/>
<path d="M17.531 38.2378V80.2097C17.531 85.9116 14.5167 89 9.36046 89H8.2499C2.85574 89 0 85.8324 0 80.2097V38.2378C0 32.6151 2.53843 29.2891 8.2499 29.2891H9.36046C15.0719 29.2891 17.531 32.7735 17.531 38.2378ZM9.67777 80.8432V37.4459C9.67777 36.5748 9.36047 36.0996 8.80518 36.0996C8.2499 36.0996 7.9326 36.5748 7.9326 37.4459V80.8432C7.9326 81.7144 8.2499 82.1103 8.80518 82.1103C9.36047 82.1103 9.67777 81.7144 9.67777 80.8432Z" fill="url(#paint2_linear_677_2642)" style=""/>
<path d="M18.8244 88.6041V29.685H31.5959V36.7331H26.3604V53.9971H30.8026L30.882 61.2036H26.3604V88.6041H18.8244Z" fill="url(#paint3_linear_677_2642)" style=""/>
<path d="M18.8244 88.6041V29.685H31.5959V36.7331H26.3604V53.9971H30.8026L30.882 61.2036H26.3604V88.6041H18.8244Z" fill="white" style="fill:white;fill-opacity:1;"/>
<path d="M18.8244 88.6041V29.685H31.5959V36.7331H26.3604V53.9971H30.8026L30.882 61.2036H26.3604V88.6041H18.8244Z" fill="url(#paint4_linear_677_2642)" style=""/>
<path d="M18.8244 88.6041V29.685H31.5959V36.7331H26.3604V53.9971H30.8026L30.882 61.2036H26.3604V88.6041H18.8244Z" fill="url(#paint5_linear_677_2642)" style=""/>
<path d="M40.9787 88.6041V36.7331H37.5677V29.685H52.0843V36.7331H48.594V88.6041H40.9787Z" fill="url(#paint6_linear_677_2642)" style=""/>
<path d="M40.9787 88.6041V36.7331H37.5677V29.685H52.0843V36.7331H48.594V88.6041H40.9787Z" fill="white" style="fill:white;fill-opacity:1;"/>
<path d="M40.9787 88.6041V36.7331H37.5677V29.685H52.0843V36.7331H48.594V88.6041H40.9787Z" fill="url(#paint7_linear_677_2642)" style=""/>
<path d="M40.9787 88.6041V36.7331H37.5677V29.685H52.0843V36.7331H48.594V88.6041H40.9787Z" fill="url(#paint8_linear_677_2642)" style=""/>
<path d="M53.2197 88.6041V29.685H60.9936V53.7595H62.5801V29.685H70.2747V88.6041H62.5801V61.7579H60.9936V88.6041H53.2197Z" fill="url(#paint9_linear_677_2642)" style=""/>
<path d="M53.2197 88.6041V29.685H60.9936V53.7595H62.5801V29.685H70.2747V88.6041H62.5801V61.7579H60.9936V88.6041H53.2197Z" fill="white" style="fill:white;fill-opacity:1;"/>
<path d="M53.2197 88.6041V29.685H60.9936V53.7595H62.5801V29.685H70.2747V88.6041H62.5801V61.7579H60.9936V88.6041H53.2197Z" fill="url(#paint10_linear_677_2642)" style=""/>
<path d="M53.2197 88.6041V29.685H60.9936V53.7595H62.5801V29.685H70.2747V88.6041H62.5801V61.7579H60.9936V88.6041H53.2197Z" fill="url(#paint11_linear_677_2642)" style=""/>
<path d="M71.5793 29.685H84.5094V36.7331H79.1946V53.9179H83.7955V61.2036H79.1946V81.4768H84.6681V88.6041H71.5793V29.685Z" fill="url(#paint12_linear_677_2642)" style=""/>
<path d="M71.5793 29.685H84.5094V36.7331H79.1946V53.9179H83.7955V61.2036H79.1946V81.4768H84.6681V88.6041H71.5793V29.685Z" fill="white" style="fill:white;fill-opacity:1;"/>
<path d="M71.5793 29.685H84.5094V36.7331H79.1946V53.9179H83.7955V61.2036H79.1946V81.4768H84.6681V88.6041H71.5793V29.685Z" fill="url(#paint13_linear_677_2642)" style=""/>
<path d="M71.5793 29.685H84.5094V36.7331H79.1946V53.9179H83.7955V61.2036H79.1946V81.4768H84.6681V88.6041H71.5793V29.685Z" fill="url(#paint14_linear_677_2642)" style=""/>
<path d="M102.849 88.6041H93.8054L90.1564 29.685H98.1684L98.9616 70.865L100.389 29.685H107.608L109.036 69.9939L109.909 29.685H117.365L113.716 88.6041H104.911L103.88 53.8387L102.849 88.6041Z" fill="url(#paint15_linear_677_2642)" style=""/>
<path d="M102.849 88.6041H93.8054L90.1564 29.685H98.1684L98.9616 70.865L100.389 29.685H107.608L109.036 69.9939L109.909 29.685H117.365L113.716 88.6041H104.911L103.88 53.8387L102.849 88.6041Z" fill="white" style="fill:white;fill-opacity:1;"/>
<path d="M102.849 88.6041H93.8054L90.1564 29.685H98.1684L98.9616 70.865L100.389 29.685H107.608L109.036 69.9939L109.909 29.685H117.365L113.716 88.6041H104.911L103.88 53.8387L102.849 88.6041Z" fill="url(#paint16_linear_677_2642)" style=""/>
<path d="M102.849 88.6041H93.8054L90.1564 29.685H98.1684L98.9616 70.865L100.389 29.685H107.608L109.036 69.9939L109.909 29.685H117.365L113.716 88.6041H104.911L103.88 53.8387L102.849 88.6041Z" fill="url(#paint17_linear_677_2642)" style=""/>
<path d="M117.982 29.685H130.912V36.7331H125.597V53.9179H130.198V61.2036H125.597V81.4768H131.071V88.6041H117.982V29.685Z" fill="url(#paint18_linear_677_2642)" style=""/>
<path d="M117.982 29.685H130.912V36.7331H125.597V53.9179H130.198V61.2036H125.597V81.4768H131.071V88.6041H117.982V29.685Z" fill="white" style="fill:white;fill-opacity:1;"/>
<path d="M117.982 29.685H130.912V36.7331H125.597V53.9179H130.198V61.2036H125.597V81.4768H131.071V88.6041H117.982V29.685Z" fill="url(#paint19_linear_677_2642)" style=""/>
<path d="M117.982 29.685H130.912V36.7331H125.597V53.9179H130.198V61.2036H125.597V81.4768H131.071V88.6041H117.982V29.685Z" fill="url(#paint20_linear_677_2642)" style=""/>
<path d="M132.158 29.685H145.088V36.7331H139.774V53.9179H144.374V61.2036H139.774V81.4768H145.247V88.6041H132.158V29.685Z" fill="url(#paint21_linear_677_2642)" style=""/>
<path d="M132.158 29.685H145.088V36.7331H139.774V53.9179H144.374V61.2036H139.774V81.4768H145.247V88.6041H132.158V29.685Z" fill="white" style="fill:white;fill-opacity:1;"/>
<path d="M132.158 29.685H145.088V36.7331H139.774V53.9179H144.374V61.2036H139.774V81.4768H145.247V88.6041H132.158V29.685Z" fill="url(#paint22_linear_677_2642)" style=""/>
<path d="M132.158 29.685H145.088V36.7331H139.774V53.9179H144.374V61.2036H139.774V81.4768H145.247V88.6041H132.158V29.685Z" fill="url(#paint23_linear_677_2642)" style=""/>
<path d="M154.029 88.6041H146.414V29.685H154.029L153.95 51.9381L156.488 29.685H164.104L160.375 56.848L164.421 88.6041H156.33L153.95 64.8464L154.029 88.6041Z" fill="url(#paint24_linear_677_2642)" style=""/>
<path d="M154.029 88.6041H146.414V29.685H154.029L153.95 51.9381L156.488 29.685H164.104L160.375 56.848L164.421 88.6041H156.33L153.95 64.8464L154.029 88.6041Z" fill="white" style="fill:white;fill-opacity:1;"/>
<path d="M154.029 88.6041H146.414V29.685H154.029L153.95 51.9381L156.488 29.685H164.104L160.375 56.848L164.421 88.6041H156.33L153.95 64.8464L154.029 88.6041Z" fill="url(#paint25_linear_677_2642)" style=""/>
<path d="M154.029 88.6041H146.414V29.685H154.029L153.95 51.9381L156.488 29.685H164.104L160.375 56.848L164.421 88.6041H156.33L153.95 64.8464L154.029 88.6041Z" fill="url(#paint26_linear_677_2642)" style=""/>
<path d="M1 25.8272V0H29.4308C37.2762 0 39.2202 2.91598 39.2202 5.79724V6.00553C39.2202 8.92151 36.686 10.5878 34.0825 11.1432C37.415 11.6986 40.7476 13.3996 40.7476 17.9819V18.2596C40.7476 22.3211 37.9357 25.8272 29.4308 25.8272H1ZM23.4253 6.69981H14.1913V9.19922H23.4253C25.0568 9.19922 25.7511 8.88679 25.7511 7.94951V7.88009C25.7511 6.90809 25.0568 6.69981 23.4253 6.69981ZM23.946 15.6907H14.1913V18.8844H23.946C26.2024 18.8844 26.7231 18.2249 26.7231 17.2529V17.1834C26.7231 16.2115 26.2024 15.6907 23.946 15.6907Z" fill="black" style="fill:black;fill-opacity:1;"/>
<path d="M1 25.8272V0H29.4308C37.2762 0 39.2202 2.91598 39.2202 5.79724V6.00553C39.2202 8.92151 36.686 10.5878 34.0825 11.1432C37.415 11.6986 40.7476 13.3996 40.7476 17.9819V18.2596C40.7476 22.3211 37.9357 25.8272 29.4308 25.8272H1ZM23.4253 6.69981H14.1913V9.19922H23.4253C25.0568 9.19922 25.7511 8.88679 25.7511 7.94951V7.88009C25.7511 6.90809 25.0568 6.69981 23.4253 6.69981ZM23.946 15.6907H14.1913V18.8844H23.946C26.2024 18.8844 26.7231 18.2249 26.7231 17.2529V17.1834C26.7231 16.2115 26.2024 15.6907 23.946 15.6907Z" fill="url(#paint27_linear_677_2642)" style=""/>
<path d="M1 25.8272V0H29.4308C37.2762 0 39.2202 2.91598 39.2202 5.79724V6.00553C39.2202 8.92151 36.686 10.5878 34.0825 11.1432C37.415 11.6986 40.7476 13.3996 40.7476 17.9819V18.2596C40.7476 22.3211 37.9357 25.8272 29.4308 25.8272H1ZM23.4253 6.69981H14.1913V9.19922H23.4253C25.0568 9.19922 25.7511 8.88679 25.7511 7.94951V7.88009C25.7511 6.90809 25.0568 6.69981 23.4253 6.69981ZM23.946 15.6907H14.1913V18.8844H23.946C26.2024 18.8844 26.7231 18.2249 26.7231 17.2529V17.1834C26.7231 16.2115 26.2024 15.6907 23.946 15.6907Z" fill="white" style="fill:white;fill-opacity:1;"/>
<path d="M1 25.8272V0H29.4308C37.2762 0 39.2202 2.91598 39.2202 5.79724V6.00553C39.2202 8.92151 36.686 10.5878 34.0825 11.1432C37.415 11.6986 40.7476 13.3996 40.7476 17.9819V18.2596C40.7476 22.3211 37.9357 25.8272 29.4308 25.8272H1ZM23.4253 6.69981H14.1913V9.19922H23.4253C25.0568 9.19922 25.7511 8.88679 25.7511 7.94951V7.88009C25.7511 6.90809 25.0568 6.69981 23.4253 6.69981ZM23.946 15.6907H14.1913V18.8844H23.946C26.2024 18.8844 26.7231 18.2249 26.7231 17.2529V17.1834C26.7231 16.2115 26.2024 15.6907 23.946 15.6907Z" fill="url(#paint28_linear_677_2642)" style=""/>
<path d="M1 25.8272V0H29.4308C37.2762 0 39.2202 2.91598 39.2202 5.79724V6.00553C39.2202 8.92151 36.686 10.5878 34.0825 11.1432C37.415 11.6986 40.7476 13.3996 40.7476 17.9819V18.2596C40.7476 22.3211 37.9357 25.8272 29.4308 25.8272H1ZM23.4253 6.69981H14.1913V9.19922H23.4253C25.0568 9.19922 25.7511 8.88679 25.7511 7.94951V7.88009C25.7511 6.90809 25.0568 6.69981 23.4253 6.69981ZM23.946 15.6907H14.1913V18.8844H23.946C26.2024 18.8844 26.7231 18.2249 26.7231 17.2529V17.1834C26.7231 16.2115 26.2024 15.6907 23.946 15.6907Z" fill="url(#paint29_linear_677_2642)" style=""/>
<path d="M55.1431 10.3101H64.7589C66.564 10.3101 67.1541 9.61579 67.1541 8.67851C67.1541 7.70652 66.5293 7.04695 64.7589 7.04695H55.1431V10.3101ZM55.1431 17.5653V25.8272H41.9517V0H70.4867C76.0409 0 80.6579 1.38856 80.6579 6.52624V6.83866C80.6579 10.6919 77.0476 12.3235 74.6871 12.8095C78.818 13.6079 80.7967 15.9337 80.7967 19.301V23.2237C80.7967 24.5081 80.9703 25.0983 81.248 25.619V25.8272H67.6748C67.5013 25.6537 67.5013 25.4107 67.5013 25.0288V21.9046C67.5013 19.2663 66.2169 17.5653 62.5024 17.5653H55.1431Z" fill="black" style="fill:black;fill-opacity:1;"/>
<path d="M55.1431 10.3101H64.7589C66.564 10.3101 67.1541 9.61579 67.1541 8.67851C67.1541 7.70652 66.5293 7.04695 64.7589 7.04695H55.1431V10.3101ZM55.1431 17.5653V25.8272H41.9517V0H70.4867C76.0409 0 80.6579 1.38856 80.6579 6.52624V6.83866C80.6579 10.6919 77.0476 12.3235 74.6871 12.8095C78.818 13.6079 80.7967 15.9337 80.7967 19.301V23.2237C80.7967 24.5081 80.9703 25.0983 81.248 25.619V25.8272H67.6748C67.5013 25.6537 67.5013 25.4107 67.5013 25.0288V21.9046C67.5013 19.2663 66.2169 17.5653 62.5024 17.5653H55.1431Z" fill="url(#paint30_linear_677_2642)" style=""/>
<path d="M55.1431 10.3101H64.7589C66.564 10.3101 67.1541 9.61579 67.1541 8.67851C67.1541 7.70652 66.5293 7.04695 64.7589 7.04695H55.1431V10.3101ZM55.1431 17.5653V25.8272H41.9517V0H70.4867C76.0409 0 80.6579 1.38856 80.6579 6.52624V6.83866C80.6579 10.6919 77.0476 12.3235 74.6871 12.8095C78.818 13.6079 80.7967 15.9337 80.7967 19.301V23.2237C80.7967 24.5081 80.9703 25.0983 81.248 25.619V25.8272H67.6748C67.5013 25.6537 67.5013 25.4107 67.5013 25.0288V21.9046C67.5013 19.2663 66.2169 17.5653 62.5024 17.5653H55.1431Z" fill="white" style="fill:white;fill-opacity:1;"/>
<path d="M55.1431 10.3101H64.7589C66.564 10.3101 67.1541 9.61579 67.1541 8.67851C67.1541 7.70652 66.5293 7.04695 64.7589 7.04695H55.1431V10.3101ZM55.1431 17.5653V25.8272H41.9517V0H70.4867C76.0409 0 80.6579 1.38856 80.6579 6.52624V6.83866C80.6579 10.6919 77.0476 12.3235 74.6871 12.8095C78.818 13.6079 80.7967 15.9337 80.7967 19.301V23.2237C80.7967 24.5081 80.9703 25.0983 81.248 25.619V25.8272H67.6748C67.5013 25.6537 67.5013 25.4107 67.5013 25.0288V21.9046C67.5013 19.2663 66.2169 17.5653 62.5024 17.5653H55.1431Z" fill="url(#paint31_linear_677_2642)" style=""/>
<path d="M55.1431 10.3101H64.7589C66.564 10.3101 67.1541 9.61579 67.1541 8.67851C67.1541 7.70652 66.5293 7.04695 64.7589 7.04695H55.1431V10.3101ZM55.1431 17.5653V25.8272H41.9517V0H70.4867C76.0409 0 80.6579 1.38856 80.6579 6.52624V6.83866C80.6579 10.6919 77.0476 12.3235 74.6871 12.8095C78.818 13.6079 80.7967 15.9337 80.7967 19.301V23.2237C80.7967 24.5081 80.9703 25.0983 81.248 25.619V25.8272H67.6748C67.5013 25.6537 67.5013 25.4107 67.5013 25.0288V21.9046C67.5013 19.2663 66.2169 17.5653 62.5024 17.5653H55.1431Z" fill="url(#paint32_linear_677_2642)" style=""/>
<path d="M82.5644 0H97.4568L109.607 11.7333V0H122.798V25.8272H109.364L95.7558 12.9136V25.8272H82.5644V0Z" fill="black" style="fill:black;fill-opacity:1;"/>
<path d="M82.5644 0H97.4568L109.607 11.7333V0H122.798V25.8272H109.364L95.7558 12.9136V25.8272H82.5644V0Z" fill="url(#paint33_linear_677_2642)" style=""/>
<path d="M82.5644 0H97.4568L109.607 11.7333V0H122.798V25.8272H109.364L95.7558 12.9136V25.8272H82.5644V0Z" fill="white" style="fill:white;fill-opacity:1;"/>
<path d="M82.5644 0H97.4568L109.607 11.7333V0H122.798V25.8272H109.364L95.7558 12.9136V25.8272H82.5644V0Z" fill="url(#paint34_linear_677_2642)" style=""/>
<path d="M82.5644 0H97.4568L109.607 11.7333V0H122.798V25.8272H109.364L95.7558 12.9136V25.8272H82.5644V0Z" fill="url(#paint35_linear_677_2642)" style=""/>
<path d="M124.94 25.8272V0H145.63C160.383 0 165 5.55424 165 12.2193V13.2955C165 19.7176 161.494 25.8272 145.63 25.8272H124.94ZM138.131 8.01894V17.843H143.408C150.871 17.843 151.357 14.441 151.357 12.9136V12.7053C151.357 11.1779 150.767 8.01894 143.408 8.01894H138.131Z" fill="black" style="fill:black;fill-opacity:1;"/>
<path d="M124.94 25.8272V0H145.63C160.383 0 165 5.55424 165 12.2193V13.2955C165 19.7176 161.494 25.8272 145.63 25.8272H124.94ZM138.131 8.01894V17.843H143.408C150.871 17.843 151.357 14.441 151.357 12.9136V12.7053C151.357 11.1779 150.767 8.01894 143.408 8.01894H138.131Z" fill="url(#paint36_linear_677_2642)" style=""/>
<path d="M124.94 25.8272V0H145.63C160.383 0 165 5.55424 165 12.2193V13.2955C165 19.7176 161.494 25.8272 145.63 25.8272H124.94ZM138.131 8.01894V17.843H143.408C150.871 17.843 151.357 14.441 151.357 12.9136V12.7053C151.357 11.1779 150.767 8.01894 143.408 8.01894H138.131Z" fill="white" style="fill:white;fill-opacity:1;"/>
<path d="M124.94 25.8272V0H145.63C160.383 0 165 5.55424 165 12.2193V13.2955C165 19.7176 161.494 25.8272 145.63 25.8272H124.94ZM138.131 8.01894V17.843H143.408C150.871 17.843 151.357 14.441 151.357 12.9136V12.7053C151.357 11.1779 150.767 8.01894 143.408 8.01894H138.131Z" fill="url(#paint37_linear_677_2642)" style=""/>
<path d="M124.94 25.8272V0H145.63C160.383 0 165 5.55424 165 12.2193V13.2955C165 19.7176 161.494 25.8272 145.63 25.8272H124.94ZM138.131 8.01894V17.843H143.408C150.871 17.843 151.357 14.441 151.357 12.9136V12.7053C151.357 11.1779 150.767 8.01894 143.408 8.01894H138.131Z" fill="url(#paint38_linear_677_2642)" style=""/>
<defs>
<linearGradient id="paint0_linear_677_2642" x1="81.7395" y1="89" x2="81.7395" y2="1" gradientUnits="userSpaceOnUse">
<stop stop-color="#EAEAEA" style="stop-color:#EAEAEA;stop-color:color(display-p3 0.9186 0.9186 0.9186);stop-opacity:1;"/>
<stop offset="0.5" stop-color="white" stop-opacity="0.8" style="stop-color:white;stop-opacity:0.8;"/>
<stop offset="1" stop-color="white" style="stop-color:white;stop-opacity:1;"/>
</linearGradient>
<linearGradient id="paint1_linear_677_2642" x1="164.421" y1="0.999988" x2="152.727" y2="106.007" gradientUnits="userSpaceOnUse">
<stop stop-color="#FFF100" style="stop-color:#FFF100;stop-color:color(display-p3 1.0000 0.9451 0.0000);stop-opacity:1;"/>
<stop offset="0.33" stop-color="#FF0000" style="stop-color:#FF0000;stop-color:color(display-p3 1.0000 0.0000 0.0000);stop-opacity:1;"/>
<stop offset="0.66" stop-color="#0C00FF" style="stop-color:#0C00FF;stop-color:color(display-p3 0.0471 0.0000 1.0000);stop-opacity:1;"/>
<stop offset="1" stop-color="#00FF00" style="stop-color:#00FF00;stop-color:color(display-p3 0.0000 1.0000 0.0000);stop-opacity:1;"/>
</linearGradient>
<linearGradient id="paint2_linear_677_2642" x1="81.7395" y1="89" x2="81.7395" y2="1" gradientUnits="userSpaceOnUse">
<stop stop-color="#EAEAEA" style="stop-color:#EAEAEA;stop-color:color(display-p3 0.9186 0.9186 0.9186);stop-opacity:1;"/>
<stop offset="0.5" stop-color="white" stop-opacity="0.8" style="stop-color:white;stop-opacity:0.8;"/>
<stop offset="1" stop-color="white" style="stop-color:white;stop-opacity:1;"/>
</linearGradient>
<linearGradient id="paint3_linear_677_2642" x1="81.7395" y1="89" x2="81.7395" y2="1" gradientUnits="userSpaceOnUse">
<stop stop-color="#EAEAEA" style="stop-color:#EAEAEA;stop-color:color(display-p3 0.9186 0.9186 0.9186);stop-opacity:1;"/>
<stop offset="0.5" stop-color="white" stop-opacity="0.8" style="stop-color:white;stop-opacity:0.8;"/>
<stop offset="1" stop-color="white" style="stop-color:white;stop-opacity:1;"/>
</linearGradient>
<linearGradient id="paint4_linear_677_2642" x1="164.421" y1="0.999988" x2="152.727" y2="106.007" gradientUnits="userSpaceOnUse">
<stop stop-color="#FFF100" style="stop-color:#FFF100;stop-color:color(display-p3 1.0000 0.9451 0.0000);stop-opacity:1;"/>
<stop offset="0.33" stop-color="#FF0000" style="stop-color:#FF0000;stop-color:color(display-p3 1.0000 0.0000 0.0000);stop-opacity:1;"/>
<stop offset="0.66" stop-color="#0C00FF" style="stop-color:#0C00FF;stop-color:color(display-p3 0.0471 0.0000 1.0000);stop-opacity:1;"/>
<stop offset="1" stop-color="#00FF00" style="stop-color:#00FF00;stop-color:color(display-p3 0.0000 1.0000 0.0000);stop-opacity:1;"/>
</linearGradient>
<linearGradient id="paint5_linear_677_2642" x1="81.7395" y1="89" x2="81.7395" y2="1" gradientUnits="userSpaceOnUse">
<stop stop-color="#EAEAEA" style="stop-color:#EAEAEA;stop-color:color(display-p3 0.9186 0.9186 0.9186);stop-opacity:1;"/>
<stop offset="0.5" stop-color="white" stop-opacity="0.8" style="stop-color:white;stop-opacity:0.8;"/>
<stop offset="1" stop-color="white" style="stop-color:white;stop-opacity:1;"/>
</linearGradient>
<linearGradient id="paint6_linear_677_2642" x1="81.7395" y1="89" x2="81.7395" y2="1" gradientUnits="userSpaceOnUse">
<stop stop-color="#EAEAEA" style="stop-color:#EAEAEA;stop-color:color(display-p3 0.9186 0.9186 0.9186);stop-opacity:1;"/>
<stop offset="0.5" stop-color="white" stop-opacity="0.8" style="stop-color:white;stop-opacity:0.8;"/>
<stop offset="1" stop-color="white" style="stop-color:white;stop-opacity:1;"/>
</linearGradient>
<linearGradient id="paint7_linear_677_2642" x1="164.421" y1="0.999988" x2="152.727" y2="106.007" gradientUnits="userSpaceOnUse">
<stop stop-color="#FFF100" style="stop-color:#FFF100;stop-color:color(display-p3 1.0000 0.9451 0.0000);stop-opacity:1;"/>
<stop offset="0.33" stop-color="#FF0000" style="stop-color:#FF0000;stop-color:color(display-p3 1.0000 0.0000 0.0000);stop-opacity:1;"/>
<stop offset="0.66" stop-color="#0C00FF" style="stop-color:#0C00FF;stop-color:color(display-p3 0.0471 0.0000 1.0000);stop-opacity:1;"/>
<stop offset="1" stop-color="#00FF00" style="stop-color:#00FF00;stop-color:color(display-p3 0.0000 1.0000 0.0000);stop-opacity:1;"/>
</linearGradient>
<linearGradient id="paint8_linear_677_2642" x1="81.7395" y1="89" x2="81.7395" y2="1" gradientUnits="userSpaceOnUse">
<stop stop-color="#EAEAEA" style="stop-color:#EAEAEA;stop-color:color(display-p3 0.9186 0.9186 0.9186);stop-opacity:1;"/>
<stop offset="0.5" stop-color="white" stop-opacity="0.8" style="stop-color:white;stop-opacity:0.8;"/>
<stop offset="1" stop-color="white" style="stop-color:white;stop-opacity:1;"/>
</linearGradient>
<linearGradient id="paint9_linear_677_2642" x1="81.7395" y1="89" x2="81.7395" y2="1" gradientUnits="userSpaceOnUse">
<stop stop-color="#EAEAEA" style="stop-color:#EAEAEA;stop-color:color(display-p3 0.9186 0.9186 0.9186);stop-opacity:1;"/>
<stop offset="0.5" stop-color="white" stop-opacity="0.8" style="stop-color:white;stop-opacity:0.8;"/>
<stop offset="1" stop-color="white" style="stop-color:white;stop-opacity:1;"/>
</linearGradient>
<linearGradient id="paint10_linear_677_2642" x1="164.421" y1="0.999988" x2="152.727" y2="106.007" gradientUnits="userSpaceOnUse">
<stop stop-color="#FFF100" style="stop-color:#FFF100;stop-color:color(display-p3 1.0000 0.9451 0.0000);stop-opacity:1;"/>
<stop offset="0.33" stop-color="#FF0000" style="stop-color:#FF0000;stop-color:color(display-p3 1.0000 0.0000 0.0000);stop-opacity:1;"/>
<stop offset="0.66" stop-color="#0C00FF" style="stop-color:#0C00FF;stop-color:color(display-p3 0.0471 0.0000 1.0000);stop-opacity:1;"/>
<stop offset="1" stop-color="#00FF00" style="stop-color:#00FF00;stop-color:color(display-p3 0.0000 1.0000 0.0000);stop-opacity:1;"/>
</linearGradient>
<linearGradient id="paint11_linear_677_2642" x1="81.7395" y1="89" x2="81.7395" y2="1" gradientUnits="userSpaceOnUse">
<stop stop-color="#EAEAEA" style="stop-color:#EAEAEA;stop-color:color(display-p3 0.9186 0.9186 0.9186);stop-opacity:1;"/>
<stop offset="0.5" stop-color="white" stop-opacity="0.8" style="stop-color:white;stop-opacity:0.8;"/>
<stop offset="1" stop-color="white" style="stop-color:white;stop-opacity:1;"/>
</linearGradient>
<linearGradient id="paint12_linear_677_2642" x1="81.7395" y1="89" x2="81.7395" y2="1" gradientUnits="userSpaceOnUse">
<stop stop-color="#EAEAEA" style="stop-color:#EAEAEA;stop-color:color(display-p3 0.9186 0.9186 0.9186);stop-opacity:1;"/>
<stop offset="0.5" stop-color="white" stop-opacity="0.8" style="stop-color:white;stop-opacity:0.8;"/>
<stop offset="1" stop-color="white" style="stop-color:white;stop-opacity:1;"/>
</linearGradient>
<linearGradient id="paint13_linear_677_2642" x1="164.421" y1="0.999988" x2="152.727" y2="106.007" gradientUnits="userSpaceOnUse">
<stop stop-color="#FFF100" style="stop-color:#FFF100;stop-color:color(display-p3 1.0000 0.9451 0.0000);stop-opacity:1;"/>
<stop offset="0.33" stop-color="#FF0000" style="stop-color:#FF0000;stop-color:color(display-p3 1.0000 0.0000 0.0000);stop-opacity:1;"/>
<stop offset="0.66" stop-color="#0C00FF" style="stop-color:#0C00FF;stop-color:color(display-p3 0.0471 0.0000 1.0000);stop-opacity:1;"/>
<stop offset="1" stop-color="#00FF00" style="stop-color:#00FF00;stop-color:color(display-p3 0.0000 1.0000 0.0000);stop-opacity:1;"/>
</linearGradient>
<linearGradient id="paint14_linear_677_2642" x1="81.7395" y1="89" x2="81.7395" y2="1" gradientUnits="userSpaceOnUse">
<stop stop-color="#EAEAEA" style="stop-color:#EAEAEA;stop-color:color(display-p3 0.9186 0.9186 0.9186);stop-opacity:1;"/>
<stop offset="0.5" stop-color="white" stop-opacity="0.8" style="stop-color:white;stop-opacity:0.8;"/>
<stop offset="1" stop-color="white" style="stop-color:white;stop-opacity:1;"/>
</linearGradient>
<linearGradient id="paint15_linear_677_2642" x1="81.7395" y1="89" x2="81.7395" y2="1" gradientUnits="userSpaceOnUse">
<stop stop-color="#EAEAEA" style="stop-color:#EAEAEA;stop-color:color(display-p3 0.9186 0.9186 0.9186);stop-opacity:1;"/>
<stop offset="0.5" stop-color="white" stop-opacity="0.8" style="stop-color:white;stop-opacity:0.8;"/>
<stop offset="1" stop-color="white" style="stop-color:white;stop-opacity:1;"/>
</linearGradient>
<linearGradient id="paint16_linear_677_2642" x1="164.421" y1="0.999988" x2="152.727" y2="106.007" gradientUnits="userSpaceOnUse">
<stop stop-color="#FFF100" style="stop-color:#FFF100;stop-color:color(display-p3 1.0000 0.9451 0.0000);stop-opacity:1;"/>
<stop offset="0.33" stop-color="#FF0000" style="stop-color:#FF0000;stop-color:color(display-p3 1.0000 0.0000 0.0000);stop-opacity:1;"/>
<stop offset="0.66" stop-color="#0C00FF" style="stop-color:#0C00FF;stop-color:color(display-p3 0.0471 0.0000 1.0000);stop-opacity:1;"/>
<stop offset="1" stop-color="#00FF00" style="stop-color:#00FF00;stop-color:color(display-p3 0.0000 1.0000 0.0000);stop-opacity:1;"/>
</linearGradient>
<linearGradient id="paint17_linear_677_2642" x1="81.7395" y1="89" x2="81.7395" y2="1" gradientUnits="userSpaceOnUse">
<stop stop-color="#EAEAEA" style="stop-color:#EAEAEA;stop-color:color(display-p3 0.9186 0.9186 0.9186);stop-opacity:1;"/>
<stop offset="0.5" stop-color="white" stop-opacity="0.8" style="stop-color:white;stop-opacity:0.8;"/>
<stop offset="1" stop-color="white" style="stop-color:white;stop-opacity:1;"/>
</linearGradient>
<linearGradient id="paint18_linear_677_2642" x1="81.7395" y1="89" x2="81.7395" y2="1" gradientUnits="userSpaceOnUse">
<stop stop-color="#EAEAEA" style="stop-color:#EAEAEA;stop-color:color(display-p3 0.9186 0.9186 0.9186);stop-opacity:1;"/>
<stop offset="0.5" stop-color="white" stop-opacity="0.8" style="stop-color:white;stop-opacity:0.8;"/>
<stop offset="1" stop-color="white" style="stop-color:white;stop-opacity:1;"/>
</linearGradient>
<linearGradient id="paint19_linear_677_2642" x1="164.421" y1="0.999988" x2="152.727" y2="106.007" gradientUnits="userSpaceOnUse">
<stop stop-color="#FFF100" style="stop-color:#FFF100;stop-color:color(display-p3 1.0000 0.9451 0.0000);stop-opacity:1;"/>
<stop offset="0.33" stop-color="#FF0000" style="stop-color:#FF0000;stop-color:color(display-p3 1.0000 0.0000 0.0000);stop-opacity:1;"/>
<stop offset="0.66" stop-color="#0C00FF" style="stop-color:#0C00FF;stop-color:color(display-p3 0.0471 0.0000 1.0000);stop-opacity:1;"/>
<stop offset="1" stop-color="#00FF00" style="stop-color:#00FF00;stop-color:color(display-p3 0.0000 1.0000 0.0000);stop-opacity:1;"/>
</linearGradient>
<linearGradient id="paint20_linear_677_2642" x1="81.7395" y1="89" x2="81.7395" y2="1" gradientUnits="userSpaceOnUse">
<stop stop-color="#EAEAEA" style="stop-color:#EAEAEA;stop-color:color(display-p3 0.9186 0.9186 0.9186);stop-opacity:1;"/>
<stop offset="0.5" stop-color="white" stop-opacity="0.8" style="stop-color:white;stop-opacity:0.8;"/>
<stop offset="1" stop-color="white" style="stop-color:white;stop-opacity:1;"/>
</linearGradient>
<linearGradient id="paint21_linear_677_2642" x1="81.7395" y1="89" x2="81.7395" y2="1" gradientUnits="userSpaceOnUse">
<stop stop-color="#EAEAEA" style="stop-color:#EAEAEA;stop-color:color(display-p3 0.9186 0.9186 0.9186);stop-opacity:1;"/>
<stop offset="0.5" stop-color="white" stop-opacity="0.8" style="stop-color:white;stop-opacity:0.8;"/>
<stop offset="1" stop-color="white" style="stop-color:white;stop-opacity:1;"/>
</linearGradient>
<linearGradient id="paint22_linear_677_2642" x1="164.421" y1="0.999988" x2="152.727" y2="106.007" gradientUnits="userSpaceOnUse">
<stop stop-color="#FFF100" style="stop-color:#FFF100;stop-color:color(display-p3 1.0000 0.9451 0.0000);stop-opacity:1;"/>
<stop offset="0.33" stop-color="#FF0000" style="stop-color:#FF0000;stop-color:color(display-p3 1.0000 0.0000 0.0000);stop-opacity:1;"/>
<stop offset="0.66" stop-color="#0C00FF" style="stop-color:#0C00FF;stop-color:color(display-p3 0.0471 0.0000 1.0000);stop-opacity:1;"/>
<stop offset="1" stop-color="#00FF00" style="stop-color:#00FF00;stop-color:color(display-p3 0.0000 1.0000 0.0000);stop-opacity:1;"/>
</linearGradient>
<linearGradient id="paint23_linear_677_2642" x1="81.7395" y1="89" x2="81.7395" y2="1" gradientUnits="userSpaceOnUse">
<stop stop-color="#EAEAEA" style="stop-color:#EAEAEA;stop-color:color(display-p3 0.9186 0.9186 0.9186);stop-opacity:1;"/>
<stop offset="0.5" stop-color="white" stop-opacity="0.8" style="stop-color:white;stop-opacity:0.8;"/>
<stop offset="1" stop-color="white" style="stop-color:white;stop-opacity:1;"/>
</linearGradient>
<linearGradient id="paint24_linear_677_2642" x1="81.7395" y1="89" x2="81.7395" y2="1" gradientUnits="userSpaceOnUse">
<stop stop-color="#EAEAEA" style="stop-color:#EAEAEA;stop-color:color(display-p3 0.9186 0.9186 0.9186);stop-opacity:1;"/>
<stop offset="0.5" stop-color="white" stop-opacity="0.8" style="stop-color:white;stop-opacity:0.8;"/>
<stop offset="1" stop-color="white" style="stop-color:white;stop-opacity:1;"/>
</linearGradient>
<linearGradient id="paint25_linear_677_2642" x1="164.421" y1="0.999988" x2="152.727" y2="106.007" gradientUnits="userSpaceOnUse">
<stop stop-color="#FFF100" style="stop-color:#FFF100;stop-color:color(display-p3 1.0000 0.9451 0.0000);stop-opacity:1;"/>
<stop offset="0.33" stop-color="#FF0000" style="stop-color:#FF0000;stop-color:color(display-p3 1.0000 0.0000 0.0000);stop-opacity:1;"/>
<stop offset="0.66" stop-color="#0C00FF" style="stop-color:#0C00FF;stop-color:color(display-p3 0.0471 0.0000 1.0000);stop-opacity:1;"/>
<stop offset="1" stop-color="#00FF00" style="stop-color:#00FF00;stop-color:color(display-p3 0.0000 1.0000 0.0000);stop-opacity:1;"/>
</linearGradient>
<linearGradient id="paint26_linear_677_2642" x1="81.7395" y1="89" x2="81.7395" y2="1" gradientUnits="userSpaceOnUse">
<stop stop-color="#EAEAEA" style="stop-color:#EAEAEA;stop-color:color(display-p3 0.9186 0.9186 0.9186);stop-opacity:1;"/>
<stop offset="0.5" stop-color="white" stop-opacity="0.8" style="stop-color:white;stop-opacity:0.8;"/>
<stop offset="1" stop-color="white" style="stop-color:white;stop-opacity:1;"/>
</linearGradient>
<linearGradient id="paint27_linear_677_2642" x1="82.5302" y1="25.8272" x2="82.5302" y2="-2.6132e-08" gradientUnits="userSpaceOnUse">
<stop stop-color="#EAEAEA" style="stop-color:#EAEAEA;stop-color:color(display-p3 0.9186 0.9186 0.9186);stop-opacity:1;"/>
<stop offset="0.5" stop-color="white" stop-opacity="0.8" style="stop-color:white;stop-opacity:0.8;"/>
<stop offset="1" stop-color="white" style="stop-color:white;stop-opacity:1;"/>
</linearGradient>
<linearGradient id="paint28_linear_677_2642" x1="164.998" y1="-4.61285e-05" x2="163.977" y2="31.1674" gradientUnits="userSpaceOnUse">
<stop stop-color="#FFF100" style="stop-color:#FFF100;stop-color:color(display-p3 1.0000 0.9451 0.0000);stop-opacity:1;"/>
<stop offset="0.33" stop-color="#FF0000" style="stop-color:#FF0000;stop-color:color(display-p3 1.0000 0.0000 0.0000);stop-opacity:1;"/>
<stop offset="0.66" stop-color="#0C00FF" style="stop-color:#0C00FF;stop-color:color(display-p3 0.0471 0.0000 1.0000);stop-opacity:1;"/>
<stop offset="1" stop-color="#00FF00" style="stop-color:#00FF00;stop-color:color(display-p3 0.0000 1.0000 0.0000);stop-opacity:1;"/>
</linearGradient>
<linearGradient id="paint29_linear_677_2642" x1="82.5302" y1="25.8272" x2="82.5302" y2="-2.6132e-08" gradientUnits="userSpaceOnUse">
<stop stop-color="#EAEAEA" style="stop-color:#EAEAEA;stop-color:color(display-p3 0.9186 0.9186 0.9186);stop-opacity:1;"/>
<stop offset="0.5" stop-color="white" stop-opacity="0.8" style="stop-color:white;stop-opacity:0.8;"/>
<stop offset="1" stop-color="white" style="stop-color:white;stop-opacity:1;"/>
</linearGradient>
<linearGradient id="paint30_linear_677_2642" x1="82.5302" y1="25.8272" x2="82.5302" y2="-2.6132e-08" gradientUnits="userSpaceOnUse">
<stop stop-color="#EAEAEA" style="stop-color:#EAEAEA;stop-color:color(display-p3 0.9186 0.9186 0.9186);stop-opacity:1;"/>
<stop offset="0.5" stop-color="white" stop-opacity="0.8" style="stop-color:white;stop-opacity:0.8;"/>
<stop offset="1" stop-color="white" style="stop-color:white;stop-opacity:1;"/>
</linearGradient>
<linearGradient id="paint31_linear_677_2642" x1="164.998" y1="-4.61285e-05" x2="163.977" y2="31.1674" gradientUnits="userSpaceOnUse">
<stop stop-color="#FFF100" style="stop-color:#FFF100;stop-color:color(display-p3 1.0000 0.9451 0.0000);stop-opacity:1;"/>
<stop offset="0.33" stop-color="#FF0000" style="stop-color:#FF0000;stop-color:color(display-p3 1.0000 0.0000 0.0000);stop-opacity:1;"/>
<stop offset="0.66" stop-color="#0C00FF" style="stop-color:#0C00FF;stop-color:color(display-p3 0.0471 0.0000 1.0000);stop-opacity:1;"/>
<stop offset="1" stop-color="#00FF00" style="stop-color:#00FF00;stop-color:color(display-p3 0.0000 1.0000 0.0000);stop-opacity:1;"/>
</linearGradient>
<linearGradient id="paint32_linear_677_2642" x1="82.5302" y1="25.8272" x2="82.5302" y2="-2.6132e-08" gradientUnits="userSpaceOnUse">
<stop stop-color="#EAEAEA" style="stop-color:#EAEAEA;stop-color:color(display-p3 0.9186 0.9186 0.9186);stop-opacity:1;"/>
<stop offset="0.5" stop-color="white" stop-opacity="0.8" style="stop-color:white;stop-opacity:0.8;"/>
<stop offset="1" stop-color="white" style="stop-color:white;stop-opacity:1;"/>
</linearGradient>
<linearGradient id="paint33_linear_677_2642" x1="82.5302" y1="25.8272" x2="82.5302" y2="-2.6132e-08" gradientUnits="userSpaceOnUse">
<stop stop-color="#EAEAEA" style="stop-color:#EAEAEA;stop-color:color(display-p3 0.9186 0.9186 0.9186);stop-opacity:1;"/>
<stop offset="0.5" stop-color="white" stop-opacity="0.8" style="stop-color:white;stop-opacity:0.8;"/>
<stop offset="1" stop-color="white" style="stop-color:white;stop-opacity:1;"/>
</linearGradient>
<linearGradient id="paint34_linear_677_2642" x1="164.998" y1="-4.61285e-05" x2="163.977" y2="31.1674" gradientUnits="userSpaceOnUse">
<stop stop-color="#FFF100" style="stop-color:#FFF100;stop-color:color(display-p3 1.0000 0.9451 0.0000);stop-opacity:1;"/>
<stop offset="0.33" stop-color="#FF0000" style="stop-color:#FF0000;stop-color:color(display-p3 1.0000 0.0000 0.0000);stop-opacity:1;"/>
<stop offset="0.66" stop-color="#0C00FF" style="stop-color:#0C00FF;stop-color:color(display-p3 0.0471 0.0000 1.0000);stop-opacity:1;"/>
<stop offset="1" stop-color="#00FF00" style="stop-color:#00FF00;stop-color:color(display-p3 0.0000 1.0000 0.0000);stop-opacity:1;"/>
</linearGradient>
<linearGradient id="paint35_linear_677_2642" x1="82.5302" y1="25.8272" x2="82.5302" y2="-2.6132e-08" gradientUnits="userSpaceOnUse">
<stop stop-color="#EAEAEA" style="stop-color:#EAEAEA;stop-color:color(display-p3 0.9186 0.9186 0.9186);stop-opacity:1;"/>
<stop offset="0.5" stop-color="white" stop-opacity="0.8" style="stop-color:white;stop-opacity:0.8;"/>
<stop offset="1" stop-color="white" style="stop-color:white;stop-opacity:1;"/>
</linearGradient>
<linearGradient id="paint36_linear_677_2642" x1="82.5302" y1="25.8272" x2="82.5302" y2="-2.6132e-08" gradientUnits="userSpaceOnUse">
<stop stop-color="#EAEAEA" style="stop-color:#EAEAEA;stop-color:color(display-p3 0.9186 0.9186 0.9186);stop-opacity:1;"/>
<stop offset="0.5" stop-color="white" stop-opacity="0.8" style="stop-color:white;stop-opacity:0.8;"/>
<stop offset="1" stop-color="white" style="stop-color:white;stop-opacity:1;"/>
</linearGradient>
<linearGradient id="paint37_linear_677_2642" x1="164.998" y1="-4.61285e-05" x2="163.977" y2="31.1674" gradientUnits="userSpaceOnUse">
<stop stop-color="#FFF100" style="stop-color:#FFF100;stop-color:color(display-p3 1.0000 0.9451 0.0000);stop-opacity:1;"/>
<stop offset="0.33" stop-color="#FF0000" style="stop-color:#FF0000;stop-color:color(display-p3 1.0000 0.0000 0.0000);stop-opacity:1;"/>
<stop offset="0.66" stop-color="#0C00FF" style="stop-color:#0C00FF;stop-color:color(display-p3 0.0471 0.0000 1.0000);stop-opacity:1;"/>
<stop offset="1" stop-color="#00FF00" style="stop-color:#00FF00;stop-color:color(display-p3 0.0000 1.0000 0.0000);stop-opacity:1;"/>
</linearGradient>
<linearGradient id="paint38_linear_677_2642" x1="82.5302" y1="25.8272" x2="82.5302" y2="-2.6132e-08" gradientUnits="userSpaceOnUse">
<stop stop-color="#EAEAEA" style="stop-color:#EAEAEA;stop-color:color(display-p3 0.9186 0.9186 0.9186);stop-opacity:1;"/>
<stop offset="0.5" stop-color="white" stop-opacity="0.8" style="stop-color:white;stop-opacity:0.8;"/>
<stop offset="1" stop-color="white" style="stop-color:white;stop-opacity:1;"/>
</linearGradient>
</defs>
</svg>

